<?xml version="1.0" encoding="UTF-8"?>
<svg id="Illustration" xmlns="http://www.w3.org/2000/svg" version="1.1" xmlns:xlink="http://www.w3.org/1999/xlink" viewBox="0 0 2965.92 2965.92">
  <defs>
    <style>
      .cls-1 {
        fill: url(#linear-gradient-38);
      }

      .cls-1, .cls-2, .cls-3, .cls-4, .cls-5, .cls-6, .cls-7, .cls-8, .cls-9, .cls-10, .cls-11, .cls-12, .cls-13, .cls-14, .cls-15, .cls-16, .cls-17, .cls-18, .cls-19, .cls-20, .cls-21, .cls-22, .cls-23, .cls-24, .cls-25, .cls-26, .cls-27, .cls-28, .cls-29, .cls-30, .cls-31, .cls-32, .cls-33, .cls-34, .cls-35, .cls-36, .cls-37, .cls-38, .cls-39, .cls-40, .cls-41, .cls-42, .cls-43, .cls-44, .cls-45, .cls-46, .cls-47, .cls-48, .cls-49, .cls-50, .cls-51, .cls-52, .cls-53, .cls-54, .cls-55, .cls-56, .cls-57, .cls-58, .cls-59 {
        stroke-width: 0px;
      }

      .cls-2 {
        fill: url(#linear-gradient-12);
      }

      .cls-3 {
        fill: #bdd0fb;
      }

      .cls-4 {
        fill: url(#linear-gradient-17);
      }

      .cls-5 {
        fill: url(#linear-gradient-19);
      }

      .cls-6 {
        fill: url(#linear-gradient-33);
      }

      .cls-7 {
        fill: url(#linear-gradient);
      }

      .cls-8 {
        fill: url(#linear-gradient-21);
      }

      .cls-9 {
        fill: url(#linear-gradient-6);
      }

      .cls-10 {
        fill: url(#linear-gradient-42);
      }

      .cls-11 {
        fill: url(#linear-gradient-15);
      }

      .cls-12 {
        fill: url(#linear-gradient-11);
      }

      .cls-13 {
        fill: url(#linear-gradient-5);
      }

      .cls-14 {
        fill: url(#linear-gradient-31);
      }

      .cls-15 {
        fill: url(#linear-gradient-34);
      }

      .cls-16 {
        fill: url(#linear-gradient-41);
      }

      .cls-17 {
        fill: url(#linear-gradient-40);
      }

      .cls-18 {
        fill: url(#linear-gradient-13);
      }

      .cls-19 {
        fill: url(#linear-gradient-23);
      }

      .cls-20 {
        fill: url(#linear-gradient-25);
      }

      .cls-21 {
        fill: url(#linear-gradient-43);
      }

      .cls-22 {
        fill: url(#linear-gradient-16);
      }

      .cls-23 {
        fill: url(#linear-gradient-22);
      }

      .cls-24 {
        fill: url(#linear-gradient-54);
      }

      .cls-25 {
        fill: url(#linear-gradient-55);
      }

      .cls-26 {
        fill: url(#linear-gradient-35);
      }

      .cls-60 {
        opacity: .3;
      }

      .cls-27 {
        fill: url(#linear-gradient-50);
      }

      .cls-28 {
        fill: url(#linear-gradient-32);
      }

      .cls-29 {
        fill: url(#linear-gradient-20);
      }

      .cls-30 {
        fill: url(#linear-gradient-14);
      }

      .cls-31 {
        fill: url(#linear-gradient-2);
      }

      .cls-32 {
        fill: url(#linear-gradient-52);
      }

      .cls-33 {
        fill: #91b3fa;
      }

      .cls-34 {
        fill: url(#linear-gradient-45);
      }

      .cls-35 {
        fill: url(#linear-gradient-7);
      }

      .cls-36 {
        fill: url(#linear-gradient-39);
      }

      .cls-37 {
        fill: url(#linear-gradient-3);
      }

      .cls-38 {
        fill: #7d97f4;
      }

      .cls-39 {
        fill: url(#linear-gradient-9);
      }

      .cls-40 {
        fill: url(#linear-gradient-27);
      }

      .cls-41 {
        fill: url(#linear-gradient-53);
      }

      .cls-42 {
        fill: url(#linear-gradient-36);
      }

      .cls-43 {
        fill: url(#linear-gradient-48);
      }

      .cls-44 {
        fill: url(#linear-gradient-49);
      }

      .cls-45 {
        fill: url(#linear-gradient-8);
      }

      .cls-46 {
        fill: url(#linear-gradient-47);
      }

      .cls-47 {
        fill: url(#linear-gradient-24);
      }

      .cls-48 {
        fill: url(#linear-gradient-26);
      }

      .cls-49 {
        fill: url(#linear-gradient-18);
      }

      .cls-50 {
        fill: url(#linear-gradient-51);
      }

      .cls-51 {
        fill: url(#linear-gradient-30);
      }

      .cls-52 {
        fill: #fff;
      }

      .cls-53 {
        fill: url(#linear-gradient-44);
      }

      .cls-54 {
        fill: url(#linear-gradient-29);
      }

      .cls-55 {
        fill: url(#linear-gradient-46);
      }

      .cls-56 {
        fill: url(#linear-gradient-28);
      }

      .cls-57 {
        fill: url(#linear-gradient-10);
      }

      .cls-58 {
        fill: url(#linear-gradient-4);
      }

      .cls-59 {
        fill: url(#linear-gradient-37);
      }
    </style>
    <linearGradient id="linear-gradient" x1="3216.95" y1="3693.31" x2="736.52" y2="612.76" gradientUnits="userSpaceOnUse">
      <stop offset="0" stop-color="#dae3fe"/>
      <stop offset="1" stop-color="#e9effd"/>
    </linearGradient>
    <linearGradient id="linear-gradient-2" x1="2087.41" y1="392.38" x2="22.98" y2="3133.24" gradientUnits="userSpaceOnUse">
      <stop offset="0" stop-color="#4f52ff"/>
      <stop offset="1" stop-color="#4042e2"/>
    </linearGradient>
    <linearGradient id="linear-gradient-3" x1="2087.41" y1="392.38" x2="22.98" y2="3133.24" gradientTransform="translate(1404.76 -485.68) rotate(45)" xlink:href="#linear-gradient-2"/>
    <linearGradient id="linear-gradient-4" x1="1475.86" y1="-22.8" x2="1360.94" y2="883.03" gradientTransform="translate(1404.76 -485.68) rotate(45)" gradientUnits="userSpaceOnUse">
      <stop offset="0" stop-color="#ff928e"/>
      <stop offset="1" stop-color="#fe7062"/>
    </linearGradient>
    <linearGradient id="linear-gradient-5" x1="-184.66" y1="3505.05" x2="-442.73" y2="4553.44" gradientTransform="translate(2315.01 -3594.14)" gradientUnits="userSpaceOnUse">
      <stop offset="0" stop-color="#09005d"/>
      <stop offset="1" stop-color="#1a0f91"/>
    </linearGradient>
    <linearGradient id="linear-gradient-6" x1="-404.71" y1="3725.42" x2="-483.57" y2="4571.34" gradientTransform="translate(-1564.3 3735) rotate(-135)" xlink:href="#linear-gradient-5"/>
    <linearGradient id="linear-gradient-7" x1="14373.97" y1="2674.27" x2="13844.37" y2="3250.32" gradientTransform="translate(-13739.21 -59.94) rotate(.54)" xlink:href="#linear-gradient-5"/>
    <linearGradient id="linear-gradient-8" x1="14202.07" y1="2717.04" x2="14249.11" y2="2717.04" gradientTransform="translate(-13739.21 -59.94) rotate(.54)" gradientUnits="userSpaceOnUse">
      <stop offset="0" stop-color="#febbba"/>
      <stop offset="1" stop-color="#ff928e"/>
    </linearGradient>
    <linearGradient id="linear-gradient-9" x1="14415.7" y1="2022.77" x2="13965.03" y2="2633.59" gradientTransform="translate(-13739.21 -59.94) rotate(.54)" xlink:href="#linear-gradient-5"/>
    <linearGradient id="linear-gradient-10" x1="14255.16" y1="2565.02" x2="13725.54" y2="3141.1" gradientTransform="translate(-13739.21 -59.94) rotate(.54)" xlink:href="#linear-gradient-5"/>
    <linearGradient id="linear-gradient-11" x1="14032.53" y1="2714.63" x2="14073.14" y2="2714.63" xlink:href="#linear-gradient-8"/>
    <linearGradient id="linear-gradient-12" x1="14335.38" y1="1963.51" x2="13884.72" y2="2574.32" gradientTransform="translate(-13739.21 -59.94) rotate(.54)" xlink:href="#linear-gradient-5"/>
    <linearGradient id="linear-gradient-13" x1="11821.79" y1="-8645.3" x2="11341.84" y2="-8290.41" gradientTransform="translate(-1936.14) rotate(-180) scale(1 -1)" xlink:href="#linear-gradient-4"/>
    <linearGradient id="linear-gradient-14" x1="14395.7" y1="1489.76" x2="14636.04" y2="1489.76" xlink:href="#linear-gradient-8"/>
    <linearGradient id="linear-gradient-15" x1="-4879.85" y1="1448.54" x2="-4718.57" y2="1815.47" gradientTransform="translate(-4036.56 33.17) rotate(-179.46) scale(1 -1)" xlink:href="#linear-gradient-8"/>
    <linearGradient id="linear-gradient-16" x1="14634.89" y1="1327.27" x2="14702.18" y2="1223.81" xlink:href="#linear-gradient-8"/>
    <linearGradient id="linear-gradient-17" x1="11855.72" y1="-8599.42" x2="11375.77" y2="-8244.53" gradientTransform="translate(-1936.14) rotate(-180) scale(1 -1)" xlink:href="#linear-gradient-4"/>
    <linearGradient id="linear-gradient-18" x1="13869.79" y1="1830.16" x2="14173.93" y2="1830.16" xlink:href="#linear-gradient-8"/>
    <linearGradient id="linear-gradient-19" x1="336.79" y1="1734.04" x2="451.71" y2="1510.96" gradientTransform="matrix(1,0,0,1,0,0)" xlink:href="#linear-gradient-8"/>
    <linearGradient id="linear-gradient-20" x1="4980.27" y1="7896.3" x2="4935.33" y2="7748.09" gradientTransform="translate(-8449.33 -1155.41) rotate(-41.21)" xlink:href="#linear-gradient-8"/>
    <linearGradient id="linear-gradient-21" x1="4939.73" y1="7638.06" x2="4977.32" y2="7852.46" gradientTransform="translate(-8449.33 -1155.41) rotate(-41.21)" xlink:href="#linear-gradient-5"/>
    <linearGradient id="linear-gradient-22" x1="4934.33" y1="7895.61" x2="4893.9" y2="7762.26" gradientTransform="translate(-8449.33 -1155.41) rotate(-41.21)" xlink:href="#linear-gradient-8"/>
    <linearGradient id="linear-gradient-23" x1="13966.28" y1="1708.73" x2="14134.1" y2="2408.01" gradientTransform="translate(-13467.39)" xlink:href="#linear-gradient-5"/>
    <linearGradient id="linear-gradient-24" x1="13851.28" y1="1893.73" x2="13946.36" y2="1893.73" gradientTransform="translate(-13467.39)" xlink:href="#linear-gradient-8"/>
    <linearGradient id="linear-gradient-25" x1="5072.87" y1="1320.76" x2="4768.75" y2="1694.63" gradientTransform="translate(7476.96 666.12) rotate(-172.84) scale(1 -1)" xlink:href="#linear-gradient-8"/>
    <linearGradient id="linear-gradient-26" x1="-5448.78" y1="2022.43" x2="-5648.2" y2="2259.39" gradientTransform="translate(8784.18 886.81) rotate(16.22)" xlink:href="#linear-gradient-5"/>
    <linearGradient id="linear-gradient-27" x1="2914.94" y1="1335.2" x2="2729.05" y2="1622.49" gradientTransform="matrix(1,0,0,1,0,0)" xlink:href="#linear-gradient-4"/>
    <linearGradient id="linear-gradient-28" x1="-5737.56" y1="2440.21" x2="-5721.31" y2="2324.85" gradientTransform="translate(8784.18 886.81) rotate(16.22)" xlink:href="#linear-gradient-8"/>
    <linearGradient id="linear-gradient-29" x1="-5812.05" y1="2193.03" x2="-5660.13" y2="2367.7" gradientTransform="translate(8784.18 886.81) rotate(16.22)" xlink:href="#linear-gradient-8"/>
    <linearGradient id="linear-gradient-30" x1="-5544.29" y1="1942.05" x2="-5743.72" y2="2179.02" gradientTransform="translate(8784.18 886.81) rotate(16.22)" xlink:href="#linear-gradient-5"/>
    <linearGradient id="linear-gradient-31" x1="-5774.09" y1="2160.02" x2="-5622.18" y2="2334.68" gradientTransform="translate(8784.18 886.81) rotate(16.22)" xlink:href="#linear-gradient-8"/>
    <linearGradient id="linear-gradient-32" x1="4371.32" y1="2937.82" x2="4733.76" y2="2298.03" gradientTransform="translate(7260.81 53.41) rotate(-179.46) scale(1 -1)" xlink:href="#linear-gradient-8"/>
    <linearGradient id="linear-gradient-33" x1="4450.33" y1="2711.62" x2="4556.27" y2="2711.62" gradientTransform="translate(7260.81 53.41) rotate(-179.46) scale(1 -1)" xlink:href="#linear-gradient-5"/>
    <linearGradient id="linear-gradient-34" x1="4782.06" y1="2464.52" x2="4240.01" y2="2637.85" gradientTransform="translate(7260.81 53.41) rotate(-179.46) scale(1 -1)" xlink:href="#linear-gradient-8"/>
    <linearGradient id="linear-gradient-35" x1="4548.55" y1="2730.75" x2="4674.85" y2="2730.75" gradientTransform="translate(7260.81 53.41) rotate(-179.46) scale(1 -1)" xlink:href="#linear-gradient-5"/>
    <linearGradient id="linear-gradient-36" x1="3062.72" y1="1795.97" x2="2758.52" y2="2029.18" gradientTransform="matrix(1,0,0,1,0,0)" xlink:href="#linear-gradient-5"/>
    <linearGradient id="linear-gradient-37" x1="4452.27" y1="1860.91" x2="5053.52" y2="1173.17" gradientTransform="translate(7476.96 666.12) rotate(-172.84) scale(1 -1)" xlink:href="#linear-gradient-8"/>
    <linearGradient id="linear-gradient-38" x1="288.56" y1="2525.13" x2="228.17" y2="2643.89" gradientTransform="translate(2569.51 199.35) rotate(-167.52) scale(1 -1)" xlink:href="#linear-gradient-5"/>
    <linearGradient id="linear-gradient-39" x1="173.72" y1="2572.39" x2="233.88" y2="2572.39" gradientTransform="translate(2569.51 199.35) rotate(-167.52) scale(1 -1)" xlink:href="#linear-gradient-8"/>
    <linearGradient id="linear-gradient-40" x1="90.47" y1="2413.21" x2="346.11" y2="2054.91" gradientTransform="translate(2569.51 199.35) rotate(-167.52) scale(1 -1)" xlink:href="#linear-gradient-5"/>
    <linearGradient id="linear-gradient-41" x1="253.52" y1="2645.2" x2="44.16" y2="2918.97" gradientTransform="translate(2569.51 199.35) rotate(-167.52) scale(1 -1)" xlink:href="#linear-gradient-5"/>
    <linearGradient id="linear-gradient-42" x1="148.75" y1="2704.49" x2="310.51" y2="2704.49" gradientTransform="translate(2569.51 199.35) rotate(-167.52) scale(1 -1)" xlink:href="#linear-gradient-2"/>
    <linearGradient id="linear-gradient-43" x1="130.22" y1="2627.9" x2="186.69" y2="2627.9" gradientTransform="translate(2569.51 199.35) rotate(-167.52) scale(1 -1)" xlink:href="#linear-gradient-8"/>
    <linearGradient id="linear-gradient-44" x1="-1.67" y1="2591.76" x2="12.42" y2="2112.69" gradientTransform="translate(2569.51 199.35) rotate(-167.52) scale(1 -1)" xlink:href="#linear-gradient-5"/>
    <linearGradient id="linear-gradient-45" x1="2186.53" y1="1820.75" x2="1644.08" y2="2241.53" gradientTransform="matrix(1,0,0,1,0,0)" xlink:href="#linear-gradient-4"/>
    <linearGradient id="linear-gradient-46" x1="333.42" y1="2033.64" x2="530.37" y2="2033.64" gradientTransform="translate(2569.51 199.35) rotate(-167.52) scale(1 -1)" xlink:href="#linear-gradient-8"/>
    <linearGradient id="linear-gradient-47" x1="1562.89" y1="2404.98" x2="2080" y2="2085.59" gradientTransform="matrix(1,0,0,1,0,0)" xlink:href="#linear-gradient-4"/>
    <linearGradient id="linear-gradient-48" x1="114.79" y1="1686.18" x2="245.46" y2="1686.18" gradientTransform="translate(2569.51 199.35) rotate(-167.52) scale(1 -1)" xlink:href="#linear-gradient-8"/>
    <linearGradient id="linear-gradient-49" x1="1594.15" y1="2455.58" x2="2111.25" y2="2136.19" gradientTransform="matrix(1,0,0,1,0,0)" xlink:href="#linear-gradient-4"/>
    <linearGradient id="linear-gradient-50" x1="409.5" y1="2181.09" x2="-25.38" y2="2936.79" gradientTransform="translate(2388.6 -70.82) rotate(174.39) scale(1 -1)" xlink:href="#linear-gradient-8"/>
    <linearGradient id="linear-gradient-51" x1="308.48" y1="-424.7" x2="123.09" y2="-179.45" gradientTransform="translate(1903.22 2168.6) rotate(-130.88) scale(1 -1)" xlink:href="#linear-gradient-8"/>
    <linearGradient id="linear-gradient-52" x1="189.77" y1="-439.18" x2="384.91" y2="-439.18" gradientTransform="translate(1903.22 2168.6) rotate(-130.88) scale(1 -1)" xlink:href="#linear-gradient-5"/>
    <linearGradient id="linear-gradient-53" x1="75.28" y1="-256.19" x2="206.31" y2="-390.62" gradientTransform="translate(1903.22 2168.6) rotate(-130.88) scale(1 -1)" xlink:href="#linear-gradient-8"/>
    <linearGradient id="linear-gradient-54" x1="12421.78" y1="2800.2" x2="12165.61" y2="2870.41" gradientTransform="translate(-10510.66 -73.86) rotate(-2.83)" xlink:href="#linear-gradient-5"/>
    <linearGradient id="linear-gradient-55" x1="12174.95" y1="1943.86" x2="11993.18" y2="2135.98" gradientTransform="translate(-10487.12)" xlink:href="#linear-gradient-5"/>
  </defs>
  <path class="cls-7" d="M2534.57,2478.45c-56.97,59.98-110.88,98.66-153.48,129.22-500.66,359.23-1093.08,254.52-1218.99,228.95-185.92-37.76-545.31-110.76-805.14-416.31C-36.13,1958.03,25.08,1229.73,329.99,748.96c55.77-87.94,350.39-576.03,949.19-654.3,362.39-47.37,784.81,48.17,1090.72,304.46,642.13,537.98,596.42,1624.79,164.67,2079.33Z"/>
  <g>
    <g>
      <circle class="cls-3" cx="1288.65" cy="1452.86" r="1074.29" transform="translate(-649.89 1336.74) rotate(-45)"/>
      <g>
        <circle class="cls-31" cx="1288.65" cy="1452.86" r="916.86"/>
        <path class="cls-52" d="M1288.65,2415.64c-530.88,0-962.78-431.9-962.78-962.79s431.91-962.79,962.78-962.79,962.78,431.9,962.78,962.79-431.91,962.79-962.78,962.79ZM1288.65,535.99c-505.56,0-916.86,411.3-916.86,916.86s411.3,916.86,916.86,916.86,916.86-411.3,916.86-916.86-411.3-916.86-916.86-916.86Z"/>
      </g>
      <g>
        <circle class="cls-37" cx="1288.65" cy="1452.86" r="558.96" transform="translate(-649.89 1336.74) rotate(-45)"/>
        <path class="cls-52" d="M1288.65,2057.75c-333.53,0-604.89-271.35-604.89-604.89s271.35-604.88,604.89-604.88,604.89,271.35,604.89,604.88-271.35,604.89-604.89,604.89ZM1288.65,939.82c-282.89,0-513.04,230.15-513.04,513.04s230.15,513.05,513.04,513.05,513.04-230.15,513.04-513.05-230.15-513.04-513.04-513.04Z"/>
      </g>
      <g>
        <circle class="cls-58" cx="1288.65" cy="1452.86" r="216.56" transform="translate(-649.89 1336.74) rotate(-45)"/>
        <path class="cls-52" d="M1288.65,1715.34c-144.73,0-262.48-117.75-262.48-262.48s117.75-262.48,262.48-262.48,262.48,117.75,262.48,262.48-117.75,262.48-262.48,262.48ZM1288.65,1282.22c-94.09,0-170.64,76.55-170.64,170.64s76.55,170.64,170.64,170.64,170.64-76.55,170.64-170.64-76.55-170.64-170.64-170.64Z"/>
      </g>
    </g>
    <g>
      <rect class="cls-13" x="1877.11" y="263.08" width="32.26" height="1221.52" transform="translate(2614.09 2830.45) rotate(-135)"/>
      <path class="cls-9" d="M1466.12,1239.27c13.09-13.09,74.78,48.61,61.69,61.69l-228.81,179.88c-8.45,6.65-19.41-4.31-12.76-12.76l179.88-228.81Z"/>
      <path class="cls-33" d="M2336.02,453.87l116.2,11.55-159.52,159.52c-52.27,52.27-125.22,78.33-198.77,71.02h0l242.09-242.09Z"/>
      <path class="cls-33" d="M2313.21,431.06l-11.55-116.2-159.52,159.52c-52.27,52.27-78.33,125.22-71.02,198.77h0l242.09-242.09Z"/>
    </g>
  </g>
  <g>
    <g>
      <g class="cls-60">
        <path class="cls-33" d="M718.55,270.21c-3.25,3.25-8.51,3.24-11.76,0-6.31-6.31-12.98-12.44-19.83-18.22-3.47-2.92-3.95-8.08-1.1-11.59.03-.04.07-.08.1-.13,2.96-3.51,8.2-3.96,11.71-1,7.22,6.08,14.24,12.53,20.88,19.18,3.04,3.04,3.23,7.84.58,11.1-.18.22-.38.44-.59.65ZM651.66,226.16c-7.58-4.79-15.43-9.3-23.35-13.4-4.07-2.11-5.66-7.13-3.55-11.21,2.14-4.08,7.13-5.66,11.21-3.55,8.33,4.32,16.6,9.07,24.57,14.1,3.88,2.45,5.04,7.59,2.59,11.47-.18.28-.37.55-.58.8-2.62,3.23-7.29,4.06-10.89,1.79ZM588.2,195.37c-8.43-2.97-17.09-5.62-25.74-7.85-4.44-1.15-7.12-5.69-5.97-10.13,1.15-4.44,5.68-7.11,10.13-5.97,9.12,2.36,18.24,5.14,27.11,8.27,4.33,1.53,6.6,6.28,5.07,10.6-.33.92-.8,1.75-1.38,2.47-2.15,2.65-5.82,3.8-9.22,2.6ZM519.44,179.55c-8.89-1.02-17.93-1.66-26.86-1.91-4.59-.13-8.21-3.95-8.08-8.54.13-4.59,3.96-8.2,8.54-8.08,9.41.26,18.92.94,28.28,2,4.56.52,7.84,4.64,7.32,9.2-.19,1.63-.83,3.1-1.8,4.29-1.73,2.13-4.47,3.36-7.4,3.03ZM448.88,179.44c-8.87.98-17.83,2.36-26.62,4.09-4.51.89-8.88-2.04-9.76-6.55-.89-4.51,2.04-8.88,6.55-9.76,9.25-1.82,18.67-3.27,28.01-4.31,4.56-.51,8.67,2.78,9.18,7.35.26,2.3-.45,4.48-1.8,6.15-1.33,1.64-3.28,2.78-5.54,3.03ZM380.05,194.94c-8.45,2.92-16.87,6.25-25.05,9.88-4.19,1.86-9.11-.03-10.97-4.22-1.86-4.2.02-9.11,4.22-10.97,8.6-3.82,17.47-7.32,26.36-10.4,4.34-1.5,9.07.8,10.57,5.14.98,2.82.35,5.8-1.4,7.96-.94,1.16-2.21,2.09-3.73,2.61ZM168.02,419.27c-4.44-1.16-7.11-5.7-5.95-10.14,2.37-9.1,5.17-18.22,8.33-27.11,1.54-4.33,6.29-6.59,10.61-5.05,4.32,1.53,6.59,6.29,5.05,10.61-2.99,8.44-5.65,17.1-7.9,25.74-.31,1.19-.86,2.24-1.58,3.14-1.99,2.45-5.3,3.66-8.56,2.81ZM316.4,225.3c-7.58,4.73-15.05,9.84-22.2,15.2-3.67,2.75-8.89,2.01-11.64-1.66-2.76-3.67-1.99-8.87,1.66-11.64,7.53-5.64,15.39-11.03,23.38-16.01,3.9-2.43,9.02-1.24,11.45,2.66,1.93,3.09,1.58,6.95-.6,9.63-.57.7-1.26,1.31-2.06,1.82ZM192.31,351.02c-4.07-2.12-5.65-7.14-3.53-11.21,4.35-8.34,9.11-16.6,14.16-24.55,2.44-3.89,7.6-5.02,11.47-2.57,3.88,2.46,5.02,7.6,2.57,11.47-4.8,7.56-9.33,15.41-13.46,23.33-.26.51-.57.97-.92,1.4-2.44,3.01-6.73,3.99-10.29,2.13ZM261.15,269.11c-6.33,6.3-12.47,12.96-18.25,19.79-2.96,3.51-8.21,3.94-11.71.98-3.46-2.93-3.93-8.07-1.09-11.58.04-.05.07-.09.11-.14,6.08-7.19,12.55-14.2,19.21-20.84,3.26-3.24,8.52-3.23,11.76.03,3.03,3.04,3.21,7.83.57,11.09-.19.23-.39.45-.6.66Z"/>
        <path class="cls-33" d="M167.04,474.05c1.03-1.27,1.7-2.86,1.83-4.62.31-4.27.73-8.61,1.21-12.9.52-4.56-2.75-8.68-7.31-9.21-4.56-.53-8.69,2.75-9.21,7.31-.52,4.51-.95,9.07-1.28,13.57-.34,4.58,3.1,8.56,7.68,8.9,2.82.21,5.42-1.02,7.08-3.06Z"/>
      </g>
      <g class="cls-60">
        <path class="cls-33" d="M248.57,714c2.53-3.12,2.49-7.69-.27-10.78-2.86-3.19-5.7-6.5-8.44-9.82-2.92-3.54-8.16-4.05-11.7-1.13-3.56,2.93-4.05,8.16-1.13,11.7,2.89,3.5,5.88,6.98,8.89,10.34,3.06,3.42,8.32,3.71,11.74.64.34-.3.64-.62.91-.96Z"/>
        <path class="cls-33" d="M730.49,714.73c-3.06,3.42-8.32,3.71-11.74.65-3.42-3.06-3.71-8.31-.65-11.74,5.83-6.51,11.47-13.37,16.84-20.47,2.74-3.65,7.98-4.38,11.65-1.61,3.66,2.77,4.38,7.98,1.61,11.64-2.33,3.07-4.69,6.1-7.1,9.07-3.44,4.24-7.01,8.43-10.61,12.46ZM761.71,658.48c-4-2.25-5.42-7.32-3.17-11.32,4.32-7.68,8.36-15.63,12-23.63,1.89-4.18,6.84-6.02,11.01-4.11,4.17,1.9,6.02,6.84,4.11,11.01-3.84,8.42-8.09,16.79-12.64,24.87-.24.42-.5.81-.8,1.17-2.5,3.09-6.94,4.02-10.52,2ZM698.03,746.33c-7.05,5.98-14.46,11.74-22.01,17.12-3.74,2.66-8.93,1.79-11.59-1.95-2.66-3.74-1.79-8.92,1.95-11.59,7.18-5.11,14.21-10.58,20.9-16.26,3.5-2.97,8.75-2.54,11.72.96,2.63,3.1,2.59,7.56.12,10.6-.32.4-.68.77-1.09,1.11ZM791.25,593.6c-4.4-1.31-6.9-5.95-5.58-10.34,2.52-8.43,4.71-17.07,6.51-25.68.94-4.5,5.34-7.38,9.84-6.44,4.49.94,7.37,5.34,6.44,9.83-1.89,9.06-4.2,18.16-6.86,27.04-.32,1.07-.84,2.03-1.5,2.85-2.06,2.54-5.52,3.72-8.84,2.73ZM637.43,787.11c-8.19,4.28-16.68,8.27-25.23,11.86-4.23,1.78-9.1-.21-10.88-4.44-1.78-4.23.21-9.11,4.45-10.88,8.12-3.41,16.19-7.2,23.97-11.27,4.07-2.13,9.09-.55,11.22,3.52,1.58,3.03,1.11,6.59-.91,9.09-.69.85-1.57,1.59-2.61,2.13ZM569.36,813.62c-8.95,2.39-18.11,4.44-27.21,6.07-4.52.81-8.84-2.19-9.65-6.71-.81-4.53,2.19-8.84,6.71-9.65,8.65-1.56,17.35-3.5,25.86-5.77,4.44-1.19,8.99,1.45,10.18,5.88.71,2.67.04,5.39-1.58,7.39-1.07,1.32-2.54,2.32-4.31,2.79ZM497.12,824.66c-9.26.39-18.65.39-27.89,0-4.59-.19-8.15-4.07-7.96-8.65.19-4.59,4.07-8.15,8.65-7.96,8.78.37,17.69.37,26.5,0,4.59-.19,8.46,3.37,8.65,7.96.09,2.11-.61,4.06-1.85,5.58-1.45,1.79-3.63,2.97-6.11,3.07ZM424.19,819.68c-9.12-1.65-18.28-3.7-27.22-6.11-4.43-1.19-7.06-5.76-5.86-10.19,1.19-4.43,5.76-7.05,10.19-5.86,8.49,2.29,17.18,4.24,25.85,5.8,4.52.82,7.52,5.14,6.7,9.66-.26,1.43-.86,2.7-1.72,3.75-1.85,2.28-4.85,3.51-7.94,2.95ZM354.11,798.78c-8.52-3.61-16.99-7.63-25.19-11.95-4.06-2.14-5.62-7.17-3.48-11.23,2.14-4.05,7.17-5.62,11.23-3.48,7.79,4.11,15.84,7.93,23.92,11.36,4.23,1.79,6.2,6.67,4.41,10.9-.31.74-.72,1.4-1.2,2-2.27,2.8-6.21,3.89-9.7,2.41ZM290.39,763.04c-5.55-3.96-11.04-8.14-16.32-12.43-1.91-1.55-3.8-3.12-5.67-4.7-3.5-2.97-4.04-8.23-.97-11.71,2.97-3.5,8.21-3.94,11.72-.97,1.78,1.51,3.58,3,5.39,4.47,5.02,4.07,10.24,8.05,15.51,11.81,3.74,2.67,4.6,7.86,1.93,11.59-.1.14-.2.28-.31.41-2.75,3.39-7.69,4.09-11.28,1.52Z"/>
        <path class="cls-33" d="M812.84,520.54c1.04-1.28,1.71-2.89,1.83-4.66.31-4.49.53-9.07.65-13.62.13-4.59-3.49-8.41-8.08-8.54-4.59-.12-8.41,3.49-8.54,8.08-.12,4.32-.33,8.67-.62,12.93-.32,4.58,3.14,8.55,7.72,8.86,2.81.19,5.39-1.03,7.03-3.06Z"/>
      </g>
      <g>
        <path class="cls-33" d="M719.33,413.01c-.34-1.62-1.67-2.85-3.31-3.06l-46.9-5.99c-9.31-20.02-21.88-38.71-37.54-55.17l11.61-45.81c.41-1.61-.25-3.29-1.64-4.2l-47.43-31.1c-1.39-.91-3.2-.84-4.51.18l-37.38,28.91c-21.34-7.8-43.49-11.87-65.57-12.43l-24.19-40.63c-.85-1.42-2.51-2.15-4.13-1.82l-55.53,11.55c-1.62.34-2.85,1.67-3.06,3.31l-5.99,46.9c-20.02,9.31-38.71,21.88-55.17,37.54l-45.81-11.61c-1.61-.41-3.29.25-4.2,1.64l-31.1,47.43c-.91,1.39-.84,3.2.18,4.51l28.91,37.38c-7.8,21.34-11.87,43.49-12.43,65.57l-40.63,24.19c-1.42.85-2.15,2.51-1.82,4.13l11.55,55.53c.34,1.62,1.67,2.85,3.31,3.06l46.9,5.99c9.31,20.02,21.88,38.71,37.54,55.17l-11.61,45.81c-.41,1.61.25,3.3,1.64,4.2l47.43,31.1c1.39.91,3.2.84,4.51-.18l37.38-28.91c21.34,7.8,43.49,11.87,65.57,12.43l24.19,40.63c.85,1.42,2.51,2.15,4.13,1.82l55.53-11.55c1.62-.34,2.85-1.67,3.06-3.31l5.99-46.9c20.02-9.31,38.71-21.88,55.17-37.54l45.81,11.61c1.61.41,3.29-.25,4.2-1.64l31.1-47.43c.91-1.39.84-3.2-.18-4.51l-28.91-37.38c7.8-21.35,11.87-43.49,12.43-65.57l40.63-24.19c1.42-.85,2.15-2.51,1.82-4.13l-11.55-55.53Z"/>
        <path class="cls-3" d="M519.87,533.46c-23.15,21.27-59.28,19.75-80.55-3.4-10.31-11.21-15.63-25.77-14.98-40.98.64-15.21,7.17-29.27,18.39-39.57,23.15-21.27,59.28-19.75,80.55,3.4,19.35,21.06,19.83,52.87,2.33,74.45-1.74,2.14-3.65,4.18-5.74,6.1ZM437.62,489.64c-.49,11.67,3.59,22.82,11.49,31.42,16.31,17.74,44.02,18.92,61.76,2.61,17.76-16.31,18.92-44.02,2.61-61.76-16.31-17.74-44.02-18.92-61.76-2.61-1.61,1.48-3.09,3.06-4.44,4.72-5.87,7.24-9.25,16.14-9.65,25.62Z"/>
        <path class="cls-3" d="M588.83,580.12c3.01-3.71,5.84-7.59,8.5-11.63h0c.84-1.27,1.65-2.56,2.44-3.86,3.91-6.41,7.31-13.12,10.14-20.03.04-.09.08-.19.12-.28.11-.27.22-.54.32-.8.21-.52.41-1.05.62-1.57.53-1.38.08-2.89-1-3.78-.26-.21-.57-.39-.9-.52-1.71-.66-3.63.2-4.3,1.91-3.4,8.82-7.77,17.32-13,25.29-25.94,39.58-69.46,60.84-113.59,60.27-24.55-.31-49.28-7.38-71.29-21.81-3.86-2.53-7.56-5.24-11.1-8.1-23.8-19.3-40.1-45.97-46.42-76.37-7.26-34.92-.49-70.58,19.06-100.41,40.39-61.6,123.31-78.83,184.89-38.46,3.8,2.49,7.45,5.16,10.96,8,15.18,12.31,27.5,27.81,36.01,45.42.22.45.53.84.9,1.13.97.79,2.34.99,3.54.41,1.65-.8,2.35-2.78,1.55-4.44-8.94-18.49-21.87-34.76-37.81-47.68-3.68-2.98-7.51-5.79-11.5-8.4-64.65-42.39-151.73-24.25-194.1,40.37-20.53,31.31-27.64,68.75-20.01,105.41,6.64,31.92,23.75,59.92,48.73,80.18,3.71,3.01,7.6,5.85,11.65,8.51,31.32,20.53,68.75,27.64,105.41,20.01,31.92-6.64,59.93-23.76,80.19-48.75Z"/>
      </g>
    </g>
    <g>
      <g class="cls-60">
        <path class="cls-33" d="M1067.94,187.18c1.4-1.73,1.56-4.23.23-6.15-2.47-3.59-5.09-7.15-7.78-10.58-1.75-2.23-4.97-2.63-7.21-.88-2.24,1.74-2.63,4.97-.88,7.21,2.56,3.27,5.06,6.67,7.42,10.09,1.61,2.33,4.8,2.92,7.14,1.31.41-.29.77-.62,1.07-1Z"/>
        <path class="cls-33" d="M1042.27,157.27c-2,2.01-5.25,2.02-7.26.02-5.07-5.05-10.47-9.89-16.02-14.4-1.17-.95-2.36-1.89-3.56-2.82-2.24-1.74-2.64-4.96-.9-7.2,1.73-2.05,4.96-2.64,7.21-.9,1.26.98,2.5,1.96,3.72,2.95,5.83,4.72,11.48,9.8,16.8,15.1,1.88,1.87,2.01,4.85.37,6.87-.11.13-.23.26-.35.39ZM993.9,125.35c-7.45-4.45-15.24-8.48-23.16-11.97-2.6-1.15-3.77-4.17-2.63-6.77,1.14-2.58,4.17-3.77,6.77-2.63,8.3,3.66,16.47,7.88,24.28,12.55,2.43,1.45,3.23,4.61,1.78,7.04-.13.21-.27.41-.43.6-1.58,1.95-4.4,2.49-6.61,1.17ZM946.27,104.37c-8.3-2.49-16.84-4.47-25.39-5.91-2.79-.47-4.68-3.12-4.21-5.91.47-2.8,3.11-4.68,5.91-4.21,8.97,1.51,17.93,3.6,26.63,6.2,2.72.81,4.26,3.68,3.45,6.39-.2.66-.52,1.25-.93,1.76-1.27,1.57-3.41,2.3-5.46,1.69ZM894.95,95.73c-8.67-.37-17.44-.21-26.06.48-2.83.23-5.3-1.88-5.53-4.71-.23-2.82,1.88-5.3,4.7-5.53,9.05-.73,18.24-.9,27.33-.51,2.83.12,5.03,2.52,4.91,5.35-.05,1.14-.47,2.18-1.14,3.01-.99,1.22-2.52,1.97-4.21,1.9ZM843.07,99.88c-8.5,1.74-16.96,4.03-25.16,6.8-2.68.91-5.6-.54-6.5-3.23-.91-2.69.53-5.6,3.23-6.5,8.6-2.9,17.47-5.29,26.37-7.13,2.78-.57,5.49,1.22,6.06,3.99.32,1.57-.11,3.12-1.04,4.27-.72.89-1.74,1.55-2.95,1.8ZM793.77,116.5c-7.81,3.75-15.45,8.03-22.72,12.72-2.38,1.54-5.56.85-7.1-1.53-1.53-2.38-.85-5.55,1.53-7.1,7.62-4.91,15.65-9.4,23.84-13.34,2.56-1.23,5.62-.15,6.85,2.4.89,1.85.57,3.97-.64,5.46-.46.57-1.05,1.05-1.76,1.39ZM750.05,144.66c-6.63,5.54-12.99,11.57-18.92,17.92-1.94,2.07-5.18,2.18-7.26.25-2.07-1.93-2.16-5.15-.25-7.26,6.22-6.66,12.89-12.98,19.84-18.79,2.18-1.82,5.41-1.53,7.23.65,1.6,1.91,1.57,4.65.05,6.52-.21.25-.44.49-.7.71ZM693.57,206.71c-2.48-1.37-3.38-4.49-2.01-6.98,3.8-6.87,8.04-13.65,12.59-20.13.69-.99,1.38-1.96,2.09-2.93,1.59-2.33,4.88-2.8,7.17-1.13,2.29,1.67,2.8,4.88,1.13,7.17-.66.91-1.32,1.83-1.97,2.77-4.36,6.2-8.41,12.67-12.03,19.22-.15.27-.32.52-.51.75-1.54,1.9-4.26,2.48-6.47,1.25Z"/>
      </g>
      <g class="cls-60">
        <path class="cls-33" d="M1055.92,449.06c-5.72,6.88-11.92,13.46-18.41,19.58-2.06,1.94-5.31,1.85-7.26-.22-1.95-2.07-1.82-5.31.22-7.26,6.19-5.83,12.1-12.11,17.56-18.67,1.81-2.18,5.05-2.47,7.23-.66,2.16,1.8,2.47,5,.71,7.18-.01.02-.03.04-.04.05ZM1064.75,428.91c-2.38-1.54-3.06-4.72-1.52-7.1,4.63-7.16,8.88-14.68,12.62-22.34,1.24-2.53,4.32-3.61,6.87-2.36,2.55,1.24,3.6,4.31,2.36,6.86-3.92,8.03-8.37,15.9-13.23,23.41-.1.16-.21.31-.33.45-1.63,2.01-4.55,2.51-6.77,1.07ZM1016.84,485.84c-7.22,5.29-14.83,10.19-22.6,14.55-2.47,1.39-5.61.51-6.99-1.97-1.39-2.47-.51-5.59,1.96-6.99,7.42-4.16,14.67-8.83,21.57-13.88,2.29-1.68,5.5-1.18,7.17,1.1,1.41,1.92,1.28,4.5-.15,6.27-.27.34-.59.64-.96.91ZM1088.85,382.32c-2.68-.92-4.11-3.84-3.18-6.53,2.77-8.06,5.08-16.38,6.85-24.71.59-2.77,3.32-4.54,6.09-3.96,2.77.59,4.55,3.32,3.96,6.09-1.85,8.74-4.27,17.47-7.18,25.92-.2.58-.5,1.11-.87,1.56-1.32,1.63-3.56,2.34-5.66,1.62ZM970.04,512.08c-8.26,3.39-16.82,6.31-25.44,8.69-2.73.75-5.56-.86-6.31-3.59-.75-2.73.85-5.56,3.59-6.31,8.22-2.26,16.38-5.05,24.26-8.28,2.62-1.08,5.62.18,6.7,2.8.74,1.8.38,3.77-.76,5.19-.52.64-1.21,1.17-2.03,1.51ZM918.31,526.34c-8.85,1.32-17.86,2.11-26.78,2.35-2.83.08-5.19-2.15-5.27-4.99-.08-2.83,2.15-5.2,4.99-5.27,8.5-.23,17.1-.99,25.55-2.25,2.8-.42,5.42,1.52,5.83,4.32.22,1.48-.22,2.91-1.09,3.99-.78.96-1.91,1.65-3.23,1.84ZM864.64,527.79c-8.92-.84-17.86-2.24-26.58-4.15-2.77-.61-4.52-3.34-3.92-6.12.61-2.77,3.35-4.52,6.11-3.92,8.31,1.82,16.84,3.15,25.34,3.95,2.82.27,4.9,2.77,4.63,5.59-.1,1.05-.5,1.99-1.12,2.75-1.05,1.29-2.69,2.05-4.47,1.88Z"/>
        <path class="cls-33" d="M1105.43,329.15c.62-.77,1.03-1.73,1.12-2.79.38-4.38.63-8.79.75-13.1.08-2.83-2.16-5.2-4.99-5.27-2.83-.07-5.19,2.16-5.27,4.99-.11,4.12-.35,8.32-.71,12.5-.24,2.83,1.85,5.31,4.67,5.56,1.76.15,3.4-.61,4.43-1.89Z"/>
      </g>
      <g>
        <path class="cls-33" d="M1043.5,253.54c-.23-1.09-1.12-1.91-2.22-2.05l-31.39-4.01c-6.23-13.4-14.64-25.9-25.12-36.92l7.77-30.65c.27-1.08-.17-2.2-1.09-2.81l-31.74-20.81c-.93-.61-2.14-.56-3.02.12l-25.01,19.35c-14.28-5.22-29.1-7.95-43.87-8.31l-16.19-27.18c-.57-.95-1.68-1.44-2.76-1.22l-37.16,7.73c-1.09.23-1.91,1.12-2.05,2.22l-4.01,31.39c-13.4,6.23-25.9,14.64-36.92,25.12l-30.65-7.77c-1.08-.27-2.2.17-2.81,1.09l-20.81,31.74c-.61.93-.56,2.14.12,3.02l19.35,25.01c-5.22,14.28-7.95,29.1-8.31,43.87l-27.19,16.19c-.95.57-1.44,1.68-1.21,2.76l7.73,37.16c.23,1.09,1.12,1.91,2.22,2.05l31.39,4.01c6.23,13.4,14.64,25.9,25.12,36.92l-7.77,30.65c-.27,1.07.17,2.2,1.09,2.81l31.74,20.81c.93.61,2.14.56,3.02-.12l25.01-19.35c14.28,5.22,29.1,7.95,43.87,8.31l16.19,27.18c.57.95,1.68,1.44,2.76,1.22l37.16-7.73c1.09-.23,1.91-1.12,2.05-2.22l4.01-31.39c13.4-6.23,25.9-14.64,36.92-25.12l30.65,7.77c1.07.27,2.2-.17,2.81-1.09l20.81-31.74c.61-.93.56-2.14-.12-3.02l-19.35-25.01c5.22-14.28,7.94-29.1,8.31-43.87l27.19-16.19c.95-.57,1.44-1.68,1.21-2.76l-7.73-37.16Z"/>
        <path class="cls-3" d="M910.5,334.65c-7.64,7.02-17.55,10.65-27.92,10.21-10.36-.44-19.94-4.88-26.95-12.52-14.49-15.76-13.45-40.34,2.32-54.87,15.77-14.49,40.38-13.44,54.87,2.32,7.02,7.64,10.65,17.55,10.21,27.91-.36,8.42-3.36,16.33-8.58,22.76-1.2,1.48-2.52,2.88-3.94,4.19ZM863.18,325.38c5.16,5.62,12.21,8.89,19.83,9.21,7.62.32,14.91-2.35,20.53-7.51h0c5.61-5.17,8.89-12.21,9.21-19.83.32-7.62-2.35-14.91-7.51-20.53-10.66-11.6-28.76-12.36-40.36-1.71-1.05.96-2,1.98-2.87,3.06-8.77,10.82-8.53,26.76,1.17,37.31Z"/>
        <path class="cls-3" d="M958.49,367.12c2.05-2.52,3.98-5.17,5.8-7.94,3.61-5.51,6.67-11.38,9.09-17.49.11-.27.21-.55.32-.83.82-2.13.13-4.47-1.55-5.83-.41-.33-.88-.61-1.39-.8-2.64-1.02-5.61.31-6.63,2.94-2.2,5.72-5.04,11.23-8.41,16.37h0c-.18.28-.37.57-.56.84-8.1,12.1-18.91,21.73-31.48,28.31-6.82,3.57-14.17,6.25-21.88,7.93-.06.01-.13.03-.19.04-.19.04-.38.08-.58.12-22.61,4.7-45.69.32-65-12.34-2.5-1.64-4.9-3.39-7.19-5.24-15.4-12.49-25.96-29.76-30.05-49.44-4.7-22.61-.32-45.69,12.34-65,12.66-19.29,32.08-32.53,54.69-37.24,22.61-4.7,45.69-.32,65,12.34,2.46,1.61,4.82,3.34,7.09,5.18,9.83,7.97,17.8,18,23.31,29.4.34.7.82,1.29,1.39,1.75,1.5,1.21,3.62,1.53,5.47.64,2.55-1.24,3.62-4.3,2.39-6.86-6.17-12.76-15.09-23.98-26.08-32.9-2.54-2.06-5.18-3.99-7.93-5.8-21.61-14.17-47.43-19.07-72.73-13.81-25.29,5.26-47.03,20.03-61.18,41.66-14.17,21.6-19.07,47.43-13.81,72.72,4.58,22.02,16.38,41.34,33.62,55.32,2.56,2.07,5.24,4.04,8.03,5.87,41.83,27.42,97.26,18.14,128.11-19.91Z"/>
      </g>
    </g>
  </g>
  <g>
    <path class="cls-35" d="M441.54,2792.19s-5.78,31-8.76,61.71c-1.17,12,8,22.52,20.04,23.14,40.92,2.09,128.44,6.25,159.87,5.14,4.73-.17,7.86-4.97,6.15-9.38-1.43-3.69-4.23-6.7-7.81-8.39l-143.99-67.85-25.5-4.37Z"/>
    <path class="cls-45" d="M437.22,2773.91l4.05,37.18s25.22,12.04,42.65-1.08l-10.1-41.49-36.61,5.39Z"/>
    <path class="cls-39" d="M447.19,2075.68c-2,9.68-14.83,483.91,33.84,696.95.79,3.48-1,7.03-4.31,8.35-7.81,3.1-23.1,7.56-41.37,8-5.66.14-10.7-3.59-12.24-9.04-14.02-49.45-81.11-297.2-87.92-533.32-7.61-263.84.09-8.98.09-8.98l7.49-162.97,104.43,1.02Z"/>
    <path class="cls-57" d="M275.01,2806.81s-8.88,15.59-17.73,57.17c-1.6,7.51,3.59,14.76,11.22,15.58,13.5,1.46,34.29,3.37,50.96,3.41,7.68.02,13.74-6.61,12.89-14.25-1.7-15.22-7.21-40.22-24.8-59.83l-32.55-2.08Z"/>
    <path class="cls-12" d="M267.8,2758.96l9.76,56.27s10.11,7.67,30.3,2.37l-4.34-60.48-35.72,1.84Z"/>
    <path class="cls-2" d="M246.38,2088.32c-43.85,249.85,3.09,618.6,19.42,690.84,1,4.42,4.53,7.84,8.99,8.62,7.58,1.33,20.08,2.48,32.45-.99,4.26-1.19,7.28-5,7.5-9.42,2.84-58.25,2.14-416.03,42.13-557.04,2.03-7.15,6.46-13.35,12.56-17.6l75.5-52.6,6.57-86.12-205.12,24.3Z"/>
    <g>
      <path class="cls-18" d="M515.12,1616.67c-124.25-3.24-261.69,30.13-261.69,30.13-39.1,215.78-10.92,465.36-10.92,465.36,95.96,26.15,204.87-13.47,204.87-13.47,16.85-90.19,93.88-343.72,93.88-343.72,60.79-6.96,110.97-24,152.38-46.76-31.07-36.72-45.44-83.2-51.61-110.65-44.07,13.23-88.59,20.1-126.92,19.1Z"/>
      <path class="cls-30" d="M883.93,1437.13c-12.07-14.86-27.58-8.03-27.58-8.03-19.02,77.07-115.5,138.79-214.3,168.46,6.17,27.45,20.54,73.94,51.61,110.65,164.36-90.36,190.28-271.08,190.28-271.08Z"/>
    </g>
    <g>
      <path class="cls-11" d="M880.93,1440.86c1.24,4.07-13.61,10.12-22.16-6.58-.23-7.96-4.74-42.11.07-48.55,25.66-34.29,75.18-77.11,75.18-77.11,8.22,8.27,1.31,16.25,1.31,16.25l-24.06,24.59c4.9,9.05,10.9,16.71,13.65,27.63,2.08,8.27.67,17.07-3.56,24.54-4.25,7.49-10.05,17.23-15.52,24.85-10.35,14.41-24.91,14.38-24.91,14.38Z"/>
      <path class="cls-22" d="M900.7,1365.46l-21.89,18.2-6.99,18.26,19.15,21.66s6.86-36.3,11.77-44.12c4.91-7.82,2.44-11.65-2.04-14Z"/>
    </g>
    <path class="cls-4" d="M299.95,1767.58l-46.51-120.78s-116.82,77.76-136.87,177.57c21.92,1.82,61.77,7.91,100.64,28.01,9.03-47.13,82.74-84.79,82.74-84.79Z"/>
    <path class="cls-49" d="M400.3,1881.77s-131.02,72.41-174.39,9.1c-9-13.15-11.06-26.14-8.7-38.49-38.87-20.1-78.73-26.18-100.64-28.01-6.04,30.09-3.31,62.18,14.1,94.75,75.68,141.63,286.57-5.05,286.57-5.05l-16.94-32.3Z"/>
    <path class="cls-5" d="M390.22,1514.58l-40.63,113.97c-.67,1.89.09,3.99,1.83,4.98,10.72,6.06,49.39,23.66,96.47-5.57,4.9-3.04,8.27-8.05,9.07-13.77l13.75-98.84-80.48-.77Z"/>
    <g>
      <path class="cls-29" d="M477.26,1409.52s42.64,82.14,36.76,115.11c-5.88,32.96-59.67,30.08-106.4,2.82l-31.99-88.56,101.64-29.36Z"/>
      <path class="cls-8" d="M410.11,1484.12c1.92-.83,2.64-3.16,1.52-4.92-3.43-5.35-9.85-16.25-11.84-25.76,0,0-7.76-5.07,19.98-11.43,27.73-6.36,69.1-16.25,78-39.72,8.68-22.88-12.99-80.85-48.88-35.17-1.36,1.74-4.01,1.75-5.34-.01-5.74-7.62-20.87-23.46-42.17-14.15-19.93,8.72-22.31,23.24-22.11,30.58.06,2.16-1.88,3.82-4,3.39-10.02-2.01-34.08-3.88-45.56,20.71-9.45,20.26-3.54,31.84,1.88,37.52,1.76,1.84.95,4.84-1.49,5.56-6.62,1.96-15.18,7.47-14.48,22.93.98,21.37,24.88,19.72,31.69,18.81,1.12-.15,2.24.24,2.98,1.09,5.77,6.51,31.78,34.16,60.18,37.73,2.46.31,4.39-2.1,3.61-4.46l-11.96-35.89c-.56-1.67.26-3.48,1.87-4.18l6.13-2.64Z"/>
      <path class="cls-23" d="M415,1489.24s-30.71-21.5-33.14-3.66c-2.43,17.84,27.59,26.14,42.56,19.62l-9.42-15.96Z"/>
    </g>
    <g>
      <g>
        <path class="cls-19" d="M373.53,1996.2l71.37-249.25c.81-2.83,3.22-4.89,6.15-5.23,12.93-1.51,50.4-5.74,93.67-9.4,52.11-4.41,112.63-7.98,148.79-4.94,5.14.43,8.25,5.87,5.96,10.49-20.56,41.61-105.15,210.84-147.51,266.28-1.4,1.84-3.57,2.91-5.89,2.89l-165.6-1.54c-4.82-.05-8.27-4.67-6.94-9.3Z"/>
        <path class="cls-47" d="M390.77,1935.98s-9.94-40.88-5.93-55.39c4.01-14.5,11.78-33.15,37.68-29.01,25.9,4.14,56.45,15.05,56.45,15.05,0,0-1.54,18.89-21.23,12.8l12.21,9.45s-1.74,15.13-18.37,7.05l11.35,12.53s-7.14,12.42-19.37,4.46c-12.23-7.97-18.1,27.99-52.79,23.07Z"/>
      </g>
      <path class="cls-33" d="M539.95,1806.72c0,11.57,9.38,20.95,20.95,20.95s20.95-9.38,20.95-20.95-9.38-20.95-20.95-20.95-20.95,9.38-20.95,20.95Z"/>
      <path class="cls-3" d="M452.98,1820.53l14.53-49.29c1.78-6.05,6.65-10.6,12.7-11.86,45.55-9.5,170.21-11.52,171.46-11.54l-.08-5.57c-5.14.08-126.45,2.05-172.52,11.66-8.06,1.68-14.54,7.71-16.91,15.74l-14.53,49.29,5.34,1.58Z"/>
    </g>
  </g>
  <g>
    <g>
      <path class="cls-20" d="M2307.94,1449.86c1.98-3.78,7.58-3.19,8.72.93,4.23,15.23,14.48,41.82,35.97,51.26,1.08.48,2.11.96,3.1,1.44.98-2.92.99-6.32-1.35-9.89-6.68-10.21,5.38-24.16,5.38-24.16,0,0,.8,12.28,10.14,20.02,8.04,6.66,11.9,21.49,6.41,33.65-11.63,45.19-29.06,104.96,38.81,148.62,67.86,43.66,163.43-82.4,163.43-82.4l-47.43,150.37s-73.21,54.03-158.37-21.94c-85.16-75.97-28.71-186.52-28.71-186.52,0,0-64.95-26.2-36.1-81.38Z"/>
      <path class="cls-48" d="M2590.43,1368.39s-19.66-88.19,81.36-64.84c0,0,49.04-8.01,51.53,38.27,0,0,31.61,20.83,8.47,60.88,0,0,93.94-36.28,134.87,46.05,40.93,82.34,3.31,127.64-36.13,139.44,0,0,31.95,16.04,16.83,52.27-15.12,36.23-91.72,61.76-136.97,17.71,0,0-128.75,17.01-126.17-73.93,0,0-59.88-38.67,3.01-113.82,62.9-75.16,3.21-102.03,3.21-102.03Z"/>
      <path class="cls-40" d="M2584.88,1572.81c20.3-6.09,79.4-17.32,135.62,34.56,9.53,8.8,13.43,22.17,10.03,34.69-15.1,55.59-54.94,219.84-20.01,290.9,0,0-61.56,67.86-128.72,13.17,0,0-30.13-131.33-69.6-188.98-27.25-39.8,43.45-149.47,61.34-175.96,2.71-4.01,6.7-6.98,11.34-8.37Z"/>
      <path class="cls-56" d="M2640.93,1462.36s30.02,84.92,32.28,122.38c0,0-33.18,15.09-64.44-10.38,0,0-3.28-84.82-8.02-100.01l40.19-12Z"/>
      <path class="cls-54" d="M2599.23,1346.58s-78.52,109.89-31.58,141.81c46.94,31.92,102.84-46.17,102.84-46.17,0,0,18.22-60.15-.83-80.55-19.05-20.4-70.42-15.08-70.42-15.08Z"/>
      <path class="cls-51" d="M2635.58,1320.32s-36.07,8.55-41.13,24.87c-5.06,16.32,51.16,31.46,66.91,32.2l12.69,65.86s37.52-61.96,22.65-97.74c-14.86-35.78-61.12-25.19-61.12-25.19Z"/>
      <path class="cls-14" d="M2655.26,1434.12s30.56-35.4,42.72-12.32c12.16,23.08-27.51,40.4-41.24,29.07l-1.48-16.75Z"/>
      <path class="cls-28" d="M2503.41,2221.86c.23,5.96-10.24,53.25-15.93,78.48-2.29,10.15-.7,20.77,4.47,29.8l197.29,332.06c2.39,4.02,4.12,8.37,5.18,12.92,3.62,15.58,11.11,53.77,7.2,88.51l-10.21,21.2,44.14-10.02,9.6-118.54-12.5-7.62c-10.8-6.58-19.2-16.42-24.01-28.12-17.84-43.33-62.14-153.64-73.56-207.4-12.98-61.1-80.82-110.72-80.82-110.72l11.92-28.18-62.77-52.37Z"/>
      <path class="cls-6" d="M2784.61,2734.02s-23.84-37.79-26.64-52.5c-2.8-14.71-10.61-40.69-25.31-32.87,0,0-6.93,71.46-4.54,99.38,2.39,27.92-31.56,27.02-31.56,27.02,0,0-9.36,1.32-16.21,8.17-4.73,4.73-1.35,12.94,5.33,13.37,11.11.72,28.76.9,47.29-2.68,6.48-1.25,11.28-6.76,11.67-13.35l4.89-82.24,30.07,37.97,5.01-2.27Z"/>
      <path class="cls-15" d="M2621.27,2274.76s6.96,297.02,7.9,339.21c.94,42.19-6.66,135.67-48.95,163.61l18.4,13.62s23-19.55,45.46-57.16c25.24-42.26,32.87-49.98,32.87-49.98l-8.38-17.15c-3.67-7.51-4.74-16-3.06-24.19,9.13-44.23,39.61-191.35,47.93-223.03,9.82-37.4,10.51-87.34-23.64-129.15-34.15-41.81-68.55-15.79-68.55-15.79Z"/>
      <path class="cls-26" d="M2660.32,2804.59c1.31.01,2.43-.93,2.61-2.23,1.41-9.9,7.27-49.6,12.06-59.88,5.49-11.77,23.43-61.32-.01-65.53,0,0-58.27,85.14-69.46,96.62-11.19,11.48-25.3,4.01-25.3,4.01,0,0-10.9,3.22-19.12,13.72-3.91,5-.27,12.34,6.08,12.4l39.25.37c11.4.11,21.65-6.82,25.89-17.4,6.91-17.26,18.78-42.57,32.61-53.8l-7.19,68.82c-.16,1.53,1.03,2.87,2.58,2.89h0Z"/>
      <path class="cls-42" d="M2572.52,1914.1s8.84,28.19-4.74,74.63l-84.29,294.36c-1.32,4.63,1.17,9.47,5.7,11.09,25.21,9.05,108.1,34.63,221.25,26.83,5.7-.39,10.47-4.43,11.71-10,7.46-33.56,32.89-148.05,38.13-171.58,19.96-89.64,42.24-186.31-55.79-244.77-45.18,19.35-87.31,30.76-131.96,19.44Z"/>
      <path class="cls-59" d="M2728.55,1618.46s95.91,79.7,119.71,188.62c23.8,108.91-140.14,120.49-140.14,120.49,0,0-22.26-24.85-48.68-15.99-26.42,8.86-2.05-43.38,28.87-43.24,30.92.14,16.59,24.58,60.33,4.77,42.6-19.3,68.94-78.98-39.76-169.45-6.3-5.24-11.33-11.93-14.36-19.55-21.12-53.16-4.37-88,34.04-65.65Z"/>
    </g>
    <g>
      <g>
        <rect class="cls-38" x="2094.2" y="2432.2" width="34.21" height="369.96"/>
        <path class="cls-38" d="M2261.11,2809.29h-299.63v-19.8c0-1.37,1.11-2.47,2.47-2.47h294.68c1.37,0,2.47,1.11,2.47,2.47v19.8Z"/>
        <rect class="cls-38" x="1917.41" y="2344.11" width="400.37" height="113.55" rx="39.1" ry="39.1"/>
      </g>
      <g>
        <path class="cls-1" d="M1808.05,2689.81s-110.6,47.64-104.26,97.49c0,0,114.32-21.92,134.78-54.6,20.46-32.68,9.19-51.6,9.19-51.6l-39.71,8.72Z"/>
        <path class="cls-36" d="M1835.13,2635.37l5.62,48.54c.85,7.32-3.22,14.55-10.16,17.05-3.47,1.25-8.03,2.11-14.01,2.14-8.44.04-15.91-5.5-18.16-13.63l-10.88-39.26,47.6-14.83Z"/>
        <path class="cls-17" d="M2076.74,2263.15s-203.42-9.41-304.64,49.61c-101.22,59.03,5.13,342.33,5.13,342.33,0,0,26.44,5.68,64.51-14.66,0,0-54.33-207.39,40.04-243.47,106.11-40.56,215.85-30.7,215.85-30.7l-20.33-96.71-.57-6.41Z"/>
        <path class="cls-16" d="M1726.01,2765.42c23.13-5.07,91.72-33.49,102.14-33.11,10.42.38,25.18,15.99,25.18,15.99,0,0,2.54,8.53-4.91,20.78-17.67,13.78-55.74,39.08-100.01,41.85-32.56,2.04-52.15-10.92-63.35-23.48,9.81-9.55,25.55-18.66,40.95-22.04Z"/>
        <path class="cls-10" d="M1748.42,2810.94c44.26-2.77,82.33-28.07,100.01-41.85-5.04,8.28-14.63,18.25-32.66,28.44-44.73,25.27-118.66,21.59-133.31,15.9-11.74-4.56-8.11-15.53,2.62-25.97,11.21,12.57,30.79,25.52,63.35,23.48Z"/>
        <path class="cls-21" d="M1877.61,2722.9c-1.51,5.73-17.72,22.93-27.08,32.53-4.45,4.56-10.91,6.51-17.14,5.15-3.95-.86-8.41-2.21-12.26-4.3-5.79-3.14-7.8-10.5-4.63-16.27l23.69-43.08,37.42,25.97Z"/>
        <path class="cls-53" d="M2278.33,2246.09s17.76,125.97-33.58,151.71c-51.34,25.75-163.94,42.6-202.73,107.94-38.78,65.33-108.44,193.57-171.83,230.41,0,0-36.2-11.77-46.78-29.58,0,0,75.24-197.8,106.63-245.88,27.18-41.63,66.93-101.62,123.41-127.56,16.17-7.43,17.43-24.58,14.59-42.14l-5.18-31.98,215.48-12.92Z"/>
        <path class="cls-34" d="M1802.51,2103.3c71.98,20.55,104.19-182.02,103.9-186.94l110.35,129.03s-65.75,115.7-165.04,128.02c-25.12,3.12-46.49-1.23-64.41-9.44,13.21-21.63,16.22-42.99,15.2-60.66Z"/>
        <path class="cls-55" d="M1669.22,2037c31.37-12.89,57.98,12.83,57.98,12.83,31.08,31.82,55.74,47.88,75.31,53.47,1.03,17.67-1.99,39.03-15.2,60.66-38.78-17.77-61.39-53.68-70.7-71.61-3.35-6.45-11.21-9.18-17.76-6.02-6.65,3.22-13.5,8.12-13.93,14.78-.85,13.14-16.48,13.91-16.57,9.06-.09-4.85,12.11-30.8,12.11-30.8,0,0-36.04,23.12-50.07,31.96-14.03,8.84-25.98-5.75-25.98-5.75,0,0,33.45-55.69,64.82-68.59Z"/>
        <path class="cls-46" d="M2250.6,1833s-96.72-65.99-330.32,53.35c0,0-24.06,30.5-12.79,64.87,11.27,34.38,149.97,220.44,155.36,307.78,0,0,94.81,55.81,217.89.48,0,0,41.27-230.64-30.14-426.49Z"/>
        <path class="cls-43" d="M2049.19,1748.64l38.22,74.9c3.8,7.44,3,16.44-2.21,22.96-10.53,13.19-32.5,30.91-70,19.49-11.16-3.4-19.69-12.47-22.38-23.82l-19.81-83.6,76.18-9.93Z"/>
        <path class="cls-44" d="M2322.23,2094.54c6.55-45.53-113.76-133.77-113.76-133.77l42.14-127.77s229.58,163.84,181.3,297.63c-6.92,19.18-17.24,33.15-29.83,43.06-24.31-49.86-57.28-70.58-79.84-79.15Z"/>
        <path class="cls-27" d="M2154.38,2107.18s136.1,38.01,164.33-3.42c1.91-2.81,3.04-5.91,3.52-9.22,22.56,8.57,55.53,29.29,79.84,79.15-64.62,50.83-189.21-6.15-223.06-23.23-5.57-2.81-11.97-3.36-17.93-1.5-12.04,3.76-32.9,9.59-44.53,8.95-17.01-.93-35.26,60.52-64.2,44.96,0,0,13.15-105,102.03-95.7Z"/>
        <g>
          <path class="cls-50" d="M2000.2,1626.23c-1.21,1.05-51.63,89.11-77.3,134-7.84,13.7-1.97,31.15,12.54,37.37l11.12,4.76c15.19,6.51,47.86,11.96,60.72,1.58l81.05-85.56s-60.87-115.75-88.14-92.16Z"/>
          <path class="cls-32" d="M2111.17,1695.05c9.94-5.58,21.89-16.89,12.59-36.9-9.46-20.33-28.15-22.1-40.19-20.8-4.87.52-9.27-2.57-10.69-7.26-.81-2.67-2.78-5.03-7.05-5.7-5.75-.91-9.32-6.78-7.82-12.41,2.88-10.81,2.39-25.49-14.99-36.01-30.85-18.68-59.69,8.45-67.72,32.03-8.03,23.58,26.57,41.93,48.66,45.68,16.79,2.85,24.99,22.22,27.95,31.34.94,2.89.49,6.04-1.18,8.58l-24.64,37.44c6.78,8.53,12.78,17.54,18.7,26.65,2.22-2.39,4.16-4.38,5.67-5.77,10.7-9.81,29.74-4.74,37.58-2.05,2.57.88,5.36.68,7.78-.57,8.53-4.41,25.77-16.8,11.64-40.24-2.96-4.9-1.28-11.22,3.71-14.03Z"/>
          <path class="cls-41" d="M2035.82,1773.7s15.75-40.49,33.66-38.23c17.91,2.26,31.31,20.75,8.19,39.95-28.75,23.88-41.86-1.71-41.86-1.71Z"/>
        </g>
      </g>
      <g>
        <path class="cls-24" d="M1980.6,2193.83c-.24.01-.49.02-.73.02l-317.95-.35c-7.86,0-14.22-6.39-14.22-14.25,0-7.86,6.41-14.36,14.25-14.22l317.95.35c7.86,0,14.22,6.39,14.22,14.24,0,7.62-6,13.83-13.52,14.2Z"/>
        <path class="cls-25" d="M1376.1,1905.15h264.79c19.53,0,37.31,11.27,45.65,28.94l122.41,259.57h-329.06c-12.59,0-23.9-7.69-28.52-19.4l-94.93-240.19c-5.48-13.88,4.74-28.92,19.67-28.92Z"/>
        <path class="cls-33" d="M1562.65,2038.24c5.74,17.83,1.5,35.14-9.47,38.67-10.97,3.53-24.51-8.06-30.25-25.89-5.74-17.83-1.5-35.14,9.47-38.67,10.97-3.53,24.51,8.06,30.25,25.89Z"/>
      </g>
      <g>
        <g>
          <path class="cls-33" d="M1419.03,2875.77c-1.76,0-3.55-.34-5.27-1.06-6.78-2.82-9.91-10.43-6.99-16.99l280.21-630.65c2.91-6.56,10.77-9.59,17.55-6.77,6.78,2.82,9.91,10.43,6.99,16.99l-280.21,630.65c-2.17,4.89-7.1,7.83-12.28,7.83Z"/>
          <path class="cls-33" d="M1734.7,2875.77c-5.18,0-10.11-2.93-12.28-7.83l-280.21-630.65c-2.92-6.56.22-14.17,6.99-16.99,6.77-2.82,14.64.21,17.55,6.77l280.21,630.65c2.92,6.56-.22,14.17-6.99,16.99-1.72.72-3.51,1.06-5.27,1.06Z"/>
          <path class="cls-33" d="M2286.41,2875.77c-1.76,0-3.55-.34-5.27-1.06-6.78-2.82-9.91-10.43-6.99-16.99l280.21-630.65c2.92-6.56,10.77-9.59,17.55-6.77,6.78,2.82,9.91,10.43,6.99,16.99l-280.21,630.65c-2.17,4.89-7.1,7.83-12.28,7.83Z"/>
          <path class="cls-33" d="M2602.08,2875.77c-5.18,0-10.11-2.93-12.28-7.83l-280.21-630.65c-2.92-6.56.22-14.17,6.99-16.99,6.77-2.82,14.64.21,17.55,6.77l280.21,630.65c2.92,6.56-.22,14.17-6.99,16.99-1.72.72-3.51,1.06-5.27,1.06Z"/>
        </g>
        <path class="cls-33" d="M2634.95,2207.6c.71-4.14-.26-8.41-2.65-11.66-2.39-3.25-5.96-5.13-9.72-5.13h-1274.77c-4.95,0-9.56,2.82-12.22,7.49-2.67,4.67-3.02,10.53-.95,15.56l13.81,33.47c3.16,7.67,10.02,12.57,17.56,12.57h1247.82c7.02,0,13.05-5.57,14.38-13.28l6.75-39.02Z"/>
      </g>
    </g>
  </g>
</svg>