<?xml version="1.0" encoding="UTF-8"?>
<svg xmlns="http://www.w3.org/2000/svg" version="1.1" xmlns:xlink="http://www.w3.org/1999/xlink" viewBox="0 0 2987.29 2987.29">
  <defs>
    <style>
      .cls-1 {
        fill: url(#linear-gradient-18);
      }

      .cls-1, .cls-2, .cls-3, .cls-4, .cls-5, .cls-6, .cls-7, .cls-8, .cls-9, .cls-10, .cls-11, .cls-12, .cls-13, .cls-14, .cls-15, .cls-16, .cls-17, .cls-18, .cls-19, .cls-20, .cls-21, .cls-22, .cls-23, .cls-24, .cls-25, .cls-26, .cls-27, .cls-28, .cls-29 {
        stroke-width: 0px;
      }

      .cls-1, .cls-13 {
        mix-blend-mode: multiply;
        opacity: .3;
      }

      .cls-2 {
        fill: url(#linear-gradient-12);
      }

      .cls-3 {
        fill: url(#linear-gradient-17);
      }

      .cls-4 {
        fill: url(#linear-gradient-19);
      }

      .cls-5 {
        fill: url(#linear-gradient);
      }

      .cls-6 {
        fill: #fcfdfe;
      }

      .cls-7 {
        fill: url(#linear-gradient-21);
      }

      .cls-8 {
        fill: #f4f7fa;
      }

      .cls-30 {
        isolation: isolate;
      }

      .cls-9 {
        fill: url(#linear-gradient-15);
      }

      .cls-10 {
        fill: url(#linear-gradient-11);
      }

      .cls-11 {
        fill: url(#linear-gradient-5);
      }

      .cls-12 {
        fill: none;
      }

      .cls-31 {
        clip-path: url(#clippath-1);
      }

      .cls-13 {
        fill: url(#linear-gradient-6);
      }

      .cls-14 {
        fill: url(#linear-gradient-13);
      }

      .cls-15 {
        fill: url(#linear-gradient-23);
      }

      .cls-16 {
        fill: url(#linear-gradient-25);
      }

      .cls-17 {
        fill: url(#linear-gradient-16);
      }

      .cls-18 {
        fill: url(#linear-gradient-22);
      }

      .cls-19 {
        fill: url(#linear-gradient-20);
      }

      .cls-20 {
        fill: url(#linear-gradient-14);
      }

      .cls-21 {
        fill: url(#linear-gradient-2);
      }

      .cls-22 {
        fill: #26264f;
      }

      .cls-23 {
        fill: url(#linear-gradient-7);
      }

      .cls-24 {
        fill: url(#linear-gradient-3);
      }

      .cls-32 {
        clip-path: url(#clippath);
      }

      .cls-25 {
        fill: url(#linear-gradient-9);
      }

      .cls-26 {
        fill: url(#linear-gradient-8);
      }

      .cls-27 {
        fill: url(#linear-gradient-24);
      }

      .cls-28 {
        fill: url(#linear-gradient-10);
      }

      .cls-29 {
        fill: url(#linear-gradient-4);
      }
    </style>
    <linearGradient id="linear-gradient" x1="2799.76" y1="1656.77" x2="1496.46" y2="-596.87" gradientTransform="translate(-30.51 -282.2) rotate(25.35)" gradientUnits="userSpaceOnUse">
      <stop offset="0" stop-color="#aa80f9"/>
      <stop offset="1" stop-color="#6165d7"/>
    </linearGradient>
    <clipPath id="clippath">
      <path class="cls-12" d="M1862.77,1536.3c20.42-37.17,192.31-281.76,165.3-379.46-30.77-111.31-110.98-120.51-65.16-217.49,71.62-151.58,36.78-349.23-204.58-333.76-238.21,15.26-373.93,618.6-287.1,810.63,36.89,195.89,113.95,260-.55,460.6-80.2,140.51,315.29-200.75,392.07-340.51Z"/>
    </clipPath>
    <linearGradient id="linear-gradient-2" x1="1022.83" y1="1427.73" x2="1743.78" y2="2614.6" gradientTransform="translate(277.07 -347.94) rotate(113.87) scale(1 -1)" gradientUnits="userSpaceOnUse">
      <stop offset="0" stop-color="#e38ddd"/>
      <stop offset="1" stop-color="#9571f6"/>
    </linearGradient>
    <clipPath id="clippath-1">
      <path class="cls-12" d="M1591.9,2078.06c-114.19,16.3-243.12,35.37-264.49-119.45-17.79-128.88-23.39-215.7-153.85-289.93-130.46-74.23-201.06-216-108.79-334,97.09-124.17,38.78-353.78,191.92-415.01,266.85-106.7,271.57,288.33,241.25,496.53-30.32,208.21,123.19,163.41,251.02,199.11,174.52,48.74-64.81,449.58-157.07,462.75Z"/>
    </clipPath>
    <linearGradient id="linear-gradient-3" x1="681.89" y1="1927.98" x2="689.93" y2="2071.11" gradientUnits="userSpaceOnUse">
      <stop offset="0" stop-color="#26264f"/>
      <stop offset="1" stop-color="#444b8c"/>
    </linearGradient>
    <linearGradient id="linear-gradient-4" x1="672.9" y1="2029.37" x2="647.17" y2="1820.3" gradientUnits="userSpaceOnUse">
      <stop offset="0" stop-color="#ffc444"/>
      <stop offset="1" stop-color="#f36f56"/>
    </linearGradient>
    <linearGradient id="linear-gradient-5" x1="609.29" y1="1596.88" x2="890.79" y2="1596.88" gradientUnits="userSpaceOnUse">
      <stop offset="0" stop-color="#311944"/>
      <stop offset="1" stop-color="#893976"/>
    </linearGradient>
    <linearGradient id="linear-gradient-6" x1="609.29" y1="1596.88" x2="890.79" y2="1596.88" xlink:href="#linear-gradient-5"/>
    <linearGradient id="linear-gradient-7" x1="956.5" y1="1911.64" x2="964.54" y2="2054.77" xlink:href="#linear-gradient-3"/>
    <linearGradient id="linear-gradient-8" x1="937.06" y1="1996.85" x2="911.33" y2="1787.79" xlink:href="#linear-gradient-4"/>
    <linearGradient id="linear-gradient-9" x1="777.89" y1="1591.19" x2="977.91" y2="1591.19" xlink:href="#linear-gradient-5"/>
    <linearGradient id="linear-gradient-10" x1="450.42" y1="969.1" x2="829.64" y2="969.1" gradientUnits="userSpaceOnUse">
      <stop offset="0" stop-color="#fb6fbb"/>
      <stop offset="1" stop-color="#ff9085"/>
    </linearGradient>
    <linearGradient id="linear-gradient-11" x1="1183.52" y1="508.66" x2="1280.54" y2="508.66" gradientTransform="translate(470.66 -585.39) rotate(32.73)" xlink:href="#linear-gradient-3"/>
    <linearGradient id="linear-gradient-12" x1="996.46" y1="584.72" x2="1261.74" y2="584.72" xlink:href="#linear-gradient-3"/>
    <linearGradient id="linear-gradient-13" x1="993.34" y1="686.69" x2="1012.29" y2="686.69" xlink:href="#linear-gradient-3"/>
    <linearGradient id="linear-gradient-14" x1="1144.13" y1="604.73" x2="1194.15" y2="604.73" xlink:href="#linear-gradient-4"/>
    <linearGradient id="linear-gradient-15" x1="-1961.66" y1="544.78" x2="-1759.92" y2="798.59" gradientTransform="translate(-962.25 179.16) rotate(178.65) scale(1 -1)" xlink:href="#linear-gradient-4"/>
    <linearGradient id="linear-gradient-16" x1="-1950.77" y1="542.03" x2="-1776.2" y2="761.66" gradientTransform="translate(-962.25 179.16) rotate(178.65) scale(1 -1)" xlink:href="#linear-gradient-4"/>
    <linearGradient id="linear-gradient-17" x1="1262.96" y1="631.33" x2="828.75" y2="1133.09" xlink:href="#linear-gradient-10"/>
    <linearGradient id="linear-gradient-18" x1="1319.95" y1="680.65" x2="885.73" y2="1182.41" gradientUnits="userSpaceOnUse">
      <stop offset="0" stop-color="#ff9085"/>
      <stop offset="1" stop-color="#fb6fbb"/>
    </linearGradient>
    <linearGradient id="linear-gradient-19" x1="2773.48" y1="469.39" x2="2052.22" y2="433.91" gradientUnits="userSpaceOnUse">
      <stop offset="0" stop-color="#ffc444"/>
      <stop offset="1" stop-color="#f36f56"/>
    </linearGradient>
    <linearGradient id="linear-gradient-20" x1="3675.5" y1="1362.09" x2="1993.48" y2="2077.57" gradientTransform="translate(0 -7.46) rotate(1.25) skewX(1.25)" gradientUnits="userSpaceOnUse">
      <stop offset="0" stop-color="#311944"/>
      <stop offset="1" stop-color="#893976"/>
    </linearGradient>
    <linearGradient id="linear-gradient-21" x1="2260.71" y1="1793.47" x2="2873.84" y2="2802.84" gradientTransform="translate(0 -7.46) rotate(1.25) skewX(1.25)" xlink:href="#linear-gradient-18"/>
    <linearGradient id="linear-gradient-22" x1="3562" y1="1300.15" x2="1949.87" y2="1985.9" xlink:href="#linear-gradient-20"/>
    <linearGradient id="linear-gradient-23" x1="1685.58" y1="1975.88" x2="2230.64" y2="2873.2" gradientTransform="translate(0 -7.46) rotate(1.25) skewX(1.25)" xlink:href="#linear-gradient-18"/>
    <linearGradient id="linear-gradient-24" x1="3427.59" y1="1204.35" x2="1863.99" y2="1869.46" xlink:href="#linear-gradient-20"/>
    <linearGradient id="linear-gradient-25" x1="1006.9" y1="2157.94" x2="1492.25" y2="2956.95" gradientTransform="translate(0 -7.46) rotate(1.25) skewX(1.25)" xlink:href="#linear-gradient-18"/>
  </defs>
  <g class="cls-30">
    <g id="Illustration">
      <g>
        <path class="cls-8" d="M2748.24,1994.42c-204.41,231.95-545.61,209.08-544.85,318.42.83,120.74,416.8,141.09,424.56,254.74,10.52,153.98-730.36,450.14-1503.81,328.87-266.47-41.78-518.76-82.14-736.4-278.77-596.44-538.86-159.63-1679.56-88.44-1868.36,140.7-373.15,314.95-493.46,368.87-530.96C948.7,23.22,1271.49,55.28,1559.74,83.9c218.26,21.68,545.12,58.55,843.5,304.59,50.88,41.96,163.12,141.66,264.26,299.84,245.74,384.29,354.35,995.63,80.74,1306.09Z"/>
        <g>
          <g>
            <path class="cls-5" d="M1474.18,1865.69c-20.12,31.87-40.25,55.8-61.35,86.02,156.33,27.81,301.93,83.29,460.37,111.77-57.85-199.31-134.11-299.03-19-510.35,54.02-99.17,189.54-278.79,171.7-392.37-20.32-129.4-111.75-119.69-63.99-219.78,74.65-156.44,36.99-349.82-203.76-335.05-237.61,14.58-373.8,617.32-287.15,811.51,40.62,180.02,108.25,281.84,3.17,448.24Z"/>
            <g class="cls-32">
              <g>
                <path class="cls-6" d="M1658.44,1991.44l-3.01-.1c1.89-58.57-.8-117.99-3.41-175.46l-.97-21.71c-2.03-46.16-3.03-87.49-3.91-123.95-.49-20.54-.96-39.93-1.57-58.73-1.86-57.45-3.26-97.65-3.96-117.63-.24-6.72-.39-11.16-.46-13.19-5.03-157.49,46.07-373.35,73.52-489.33,2.97-12.55,5.63-23.78,7.86-33.43,38.26-165.93,58.2-343.16,59.27-526.75l3.01.02c-1.07,183.82-21.03,361.27-59.34,527.41-2.23,9.66-4.89,20.89-7.86,33.45-27.42,115.84-78.46,331.45-73.44,488.54.07,2.03.22,6.46.46,13.18.7,19.98,2.1,60.18,3.96,117.64.61,18.81,1.07,38.22,1.57,58.76.88,36.45,1.87,77.76,3.91,123.9l.97,21.71c2.61,57.53,5.3,117.01,3.41,175.69Z"/>
                <path class="cls-6" d="M1646.8,1700.32l-3.01-.05c1.62-104.21,45.52-225.98,126.94-352.13,67.82-105.08,159.92-209.5,252.69-286.49l1.93,2.32c-92.54,76.8-184.42,180.98-252.08,285.81-81.11,125.68-124.85,246.89-126.46,350.54Z"/>
                <path class="cls-6" d="M1712.78,1011.32l-2.67-1.4c41.97-79.76,94.27-154.68,144.85-227.14,34.62-49.59,70.42-100.87,102.62-153.29l2.57,1.58c-32.25,52.49-68.07,103.81-102.71,153.44-50.53,72.38-102.77,147.23-144.66,226.82Z"/>
                <path class="cls-6" d="M1653.65,1296.73c-19.99-123.76-102.87-280.41-177.38-335.23l1.79-2.43c75.03,55.2,158.47,212.76,178.57,337.17l-2.98.48Z"/>
              </g>
            </g>
          </g>
          <g>
            <path class="cls-21" d="M1499.26,1413.6c-24.65,191.79,92.04,188.4,241.21,190.58-80.55,161.08-153.05,320.88-226.06,483.32-99.81-2.94-171.25-6.91-186.97-127.12-17.78-135.95-23.53-215-153.84-291.28-130.31-76.28-201.46-215.31-108.73-334.43,97.58-125.36,37.62-352.08,191.85-415.1,268.74-109.81,268.22,294.32,242.54,494.03Z"/>
            <g class="cls-31">
              <g>
                <path class="cls-6" d="M1575.48,1868.12c-115.88-114.66-209.25-213.42-268.75-352.53-56.95-133.12-64.37-258.17-24.81-418.14,20.51-82.92,25.82-144.65,31.59-229.36l3.01.2c-5.78,84.87-11.11,146.72-31.67,229.88-39.38,159.28-32.01,283.76,24.66,416.23,59.29,138.61,152.46,237.15,268.1,351.57l-2.12,2.14Z"/>
                <path class="cls-6" d="M1323.86,2030.97l-1.6-2.56c45.52-28.39,91.01-48.58,139.09-61.72,24.59-6.72,48.19-8.92,76.05-10.14l.13,3.01c-27.66,1.22-51.07,3.39-75.39,10.04-47.79,13.06-93.02,33.14-138.29,61.37Z"/>
                <path class="cls-6" d="M1347.89,1598.13c-87.38-86.79-213.35-143.49-354.71-159.67l.34-3c142.03,16.25,268.63,73.26,356.49,160.52l-2.12,2.14Z"/>
                <path class="cls-6" d="M1259.85,1274.52l-2.95-.63c3.04-14.22,59.97-122.12,112.24-218.36,52.48-96.63,110.25-199.96,116.08-205.62l2.1,2.16c-4.95,4.81-56.78,96.73-115.53,204.9-52.17,96.05-108.97,203.64-111.95,217.54Z"/>
              </g>
            </g>
          </g>
        </g>
        <g>
          <path class="cls-24" d="M647.3,1956.43s-9.01,20.62-8.66,24.13c0,.03,0,.07.01.11.67,7.04,6.22,12.38,12.79,12.01,19.11-1.07,55.64-3.81,74.68-9.72,26.54-8.24-64.58-29.59-64.58-29.59l-14.25,3.06Z"/>
          <path class="cls-29" d="M647.88,1925.91l1.47,34.93s5.31,8.43,18.35-2.29l7.03-37.13-26.85,4.48Z"/>
          <path class="cls-11" d="M714.12,1276.1c-21.22,11.73-33.96,27.69-39,34.58-40.5,55.39-15.65,115.54-17.69,210.94-2.83,132.37-53.51,149.44-47.67,274.89,2.74,58.92,16.31,106.44,27.17,137.05,16.36-2.17,32.72-4.34,49.08-6.51,7.55-81.27,27.6-207.02,89.48-344.33,64.67-143.52,137.91-217.27,108.7-272.91-24.15-46.01-111.31-66.19-170.07-33.72Z"/>
          <path class="cls-13" d="M884.18,1309.82c-24.15-46.01-111.31-66.19-170.07-33.72-2.17,1.2-4.19,2.47-6.19,3.74,42.71,72.57,43.48,122.34,33.93,156-9.77,34.45-30.18,51.56-34.98,101.32-5.34,55.36,16.98,64.75,8.44,109.76-10.75,56.64-48.69,55.48-59.1,110.97-9.89,52.73,19.8,78.12,1.21,112.17-7.16,13.1-18.64,22.27-31.4,28.79,3.61,13.2,7.39,24.85,10.89,34.72,16.36-2.18,32.72-4.34,49.08-6.52,7.55-81.27,27.6-207.02,89.48-344.33,64.67-143.52,137.91-217.27,108.7-272.91Z"/>
          <path class="cls-23" d="M923.6,1970.09s-9.01,20.62-8.66,24.13c0,.04,0,.07.01.11.67,7.04,6.22,12.38,12.79,12.01,19.11-1.07,55.64-3.81,74.68-9.72,26.54-8.24-64.58-29.59-64.58-29.59l-14.25,3.06Z"/>
          <path class="cls-26" d="M916.33,1939.73l8.87,35.71s5.31,8.43,18.35-2.29l-.36-37.9-26.85,4.48Z"/>
          <path class="cls-25" d="M792.52,1296.85c-39.34,40.58,10.36,183.93,35.92,257.67,2.36,6.81,8.69,24.55,12.51,49.32,5.33,34.62,2.19,59.81.86,79.27,0,0-3.4,50.04,8.7,121.01,5.86,34.41,19.86,86.51,57.81,146.3,14.88-2.59,29.75-5.19,44.63-7.78.54-64.47,2.26-169.49,8.44-299.56,10.11-212.68,28.1-406.74,6.03-411.08-7.26-1.43-9,19.63-31.36,38.9-51.26,44.19-113.5-5.05-143.53,25.94Z"/>
          <path class="cls-28" d="M829.64,792.63c-50.59,3.02-219.67,18.46-318.58,130.2-23.39,26.43-80.8,91.29-53.37,148.16,26.44,54.81,124.74,87.8,241.32,69.5,7.85-9.93,15.7-19.86,23.54-29.79-64.42-6.58-109.03-36.77-111.83-68.26-2.45-27.52,27.6-49.69,42.67-60.81,51.37-37.9,116.13-37.13,138.32-35.99,12.64-51,25.28-102,37.93-153.01Z"/>
          <ellipse class="cls-10" cx="1232.03" cy="508.66" rx="42.48" ry="60.67" transform="translate(-79.41 746.92) rotate(-32.73)"/>
          <path class="cls-2" d="M996.46,682.05l196.67-201.49c2.56-2.62,6.2-3.89,9.83-3.36,15.69,2.26,57.02,13.13,58.78,64.97.15,4.31-2.11,8.38-5.87,10.5l-247.15,139.71-12.26-10.33Z"/>
          <path class="cls-14" d="M1009.79,682.21c3.54,5.51,3.28,11.98-.57,14.45-3.86,2.48-9.85.02-13.39-5.48-3.54-5.51-3.28-11.98.57-14.46,3.86-2.48,9.85-.02,13.39,5.48Z"/>
          <path class="cls-20" d="M1179.27,642.35l-35.14-26.51s17.5-5.19,11.27-31.11c-6.23-25.92,10.74-20.93,11.3,0,.56,20.93,6.01,35.3,6.01,35.3l21.44,15.45-14.87,6.88Z"/>
          <g>
            <path class="cls-9" d="M976.3,743.07c7.78-13.89,3.8-29.45,2.91-32.82-3.74-14.07-5.06-16.19-7.76-19.13l-3.81-3.84s-.23-.16-.48-.33c-2.63-1.72-12.34-4.38-14.42-4.43-6.66-.17-19.64,24-26.53,60.94-.6,1.33-1.19,2.67-1.78,4.02-1.09,2.51-1.85,4.37-1.9,4.51-1.2,2.92-8.22,13.73-15.87,20.25-17.63,15.03-58.23,23.96-57.9,30.56.31,6.13,35.93,10.34,71.16,9.58,24.89-.54,67.2-3.95,67.95-12.8.75-8.83-41.65-12.87-36.66-42.38.49-2.92,19.36-3.9,25.09-14.13Z"/>
            <path class="cls-22" d="M983.27,680.09c-2.77,11.29-11.01,22.08-14.19,23.36-.41.17-2.76,1.25-5.17,3.48-.33.3-.64.68-.97,1.18-4.2,6.52,5.1,17.64,2.15,20.3-2.14,1.93-9.1-3.02-10.49-1.25-1.32,1.67,4.14,7.11,2.62,9.13-1.15,1.52-4.71-.98-7.82,1.02-1.55,1-1.44,2.11-3.71,5.76-1.28,2.06-2.91,4.27-4.05,5.44-5.51,5.69-17.16,5.44-18.65,2.27-.41-.88.25-1.38.24-4.01,0,0,0-2.44-.96-5.49-1.37-4.36-6.24-8.41-10.84-13.77-8.53-9.93-9.8-16.94-10.13-19.28-.12-.83-.16-1.46-.2-1.9-.67-8.98,2.27-21.22,7.83-27.84,9.32-11.09,22.03-1.69,36.63-11.38,16.85-11.18,13.65-32.8,21.42-33.23,8.57-.47,21.4,25.32,16.28,46.2Z"/>
            <path class="cls-17" d="M961.67,724.78c-1.85-4.48-7.58-2.08-8.8,2.84-1.22,4.92,2.32,11.19,7.18,11.34,4.86.15,4.11-8.16,1.62-14.18Z"/>
          </g>
          <path class="cls-3" d="M770,806.63c21.82-15.84,56.52-18.81,126.02-23.71,52.16-3.67,100.64-1.68,129.69-.41,63.06,2.75,86.26,7.67,126.27-2.37,28.22-7.08,60.5-15.19,69.93-39.44,10.37-26.65-9.62-65.65-50.27-95.86,8.18-6.64,16.36-13.29,24.54-19.93,14.91,3.28,62.44,15.71,95.81,60.04,29,38.52,43.44,94.69,24.81,142.59-16.71,42.95-54.09,64.14-110.36,96.05-63.05,35.75-76.49,24.9-102.93,51.93-20.01,20.46-29.96,63.3-49.05,148.15-10.75,47.81-18.23,87.96-36.04,149.28-17.01,58.57-23.11,66.42-29.69,72.44-31.5,28.8-65.21,7.56-158.41,20.91-59.49,8.52-59.01,19.01-111.77,22.52-48.73,3.24-99.95,6.63-130.26-27.34-25.65-28.75-21.61-69.75-20.91-75.58,5.26-43.86,37.23-62.94,68.35-102.12,27.94-35.18,40.74-76.53,66.34-159.21,43.86-141.69,23.6-185.71,67.95-217.91Z"/>
          <path class="cls-1" d="M1322.76,755.82c-5.1,19.15-13.53,38.25-26.88,55.64-43.33,56.46-121.58,73.25-162.43,82.02-74.14,15.91-119.24,3.47-133.48,30.56-13.41,25.51,21.66,45.89,17.69,91.67-4.78,55.18-58.45,56.97-91.67,127.05-34.11,71.95-4.22,126.32-38.6,146.35-23.25,13.54-39.68-9.73-91.67-14.47-94.71-8.65-143.17,59.16-188.16,35.38-11.35-6-24.76-19.05-32.69-50.8-3.66,7.97-6.31,16.66-7.51,26.68-.7,5.83-4.74,46.83,20.91,75.58,30.31,33.97,81.53,30.58,130.26,27.34,52.76-3.51,52.28-14,111.77-22.52,93.2-13.34,126.91,7.9,158.41-20.91,6.58-6.01,12.67-13.86,29.69-72.44,17.81-61.32,25.29-101.47,36.04-149.28,19.09-84.85,29.04-127.7,49.05-148.15,26.44-27.03,39.88-16.18,102.93-51.93,56.28-31.91,93.65-53.09,110.36-96.05,8.93-22.96,10.2-47.82,5.97-71.73Z"/>
        </g>
        <g>
          <path class="cls-4" d="M2049.93,192.97c121.17-60.09,236.72-43.88,294.42-18.35,68.2,30.18,90.83,52.83,151.21,64.23,53.67,10.13,109.38-55.69,151.21-9.18,2.82,3.13,6.28,7.03,10.18,13.76,29.97,51.8-5.43,114.35,4.36,223.65,5.01,55.92,17.14,71.44,28.35,178.92,4.26,40.87,3.37,46.89,2.18,51.61-18.33,72.52-163.73,58.82-266.07,27.53-141.09-43.14-186.51-115.49-279.15-82.58-42.73,15.18-75.21,45.55-95.96,68.82,9.45-172.04-10.18-346.37-.73-518.41Z"/>
          <path class="cls-22" d="M2051.46,1559.31c-2.93,0-5.31-2.38-5.31-5.31V143.3c0-2.93,2.38-5.31,5.31-5.31s5.31,2.38,5.31,5.31v1410.71c0,2.93-2.38,5.31-5.31,5.31Z"/>
        </g>
        <g>
          <polygon class="cls-19" points="2235.65 2752.24 1676.4 2729.44 1676.4 1505.51 2235.65 1482.33 2235.65 2752.24"/>
          <polygon class="cls-7" points="2641.48 2724.95 2235.65 2752.24 2235.65 1482.33 2641.48 1512.18 2641.48 2724.95"/>
        </g>
        <g>
          <polygon class="cls-18" points="1608.82 2794.4 1068.88 2769.82 1068.88 1740.95 1608.82 1723.25 1608.82 2794.4"/>
          <polygon class="cls-15" points="2081.11 2762.63 1608.82 2794.4 1608.82 1723.25 2081.11 1748.05 2081.11 2762.63"/>
        </g>
        <g>
          <polygon class="cls-27" points="871.38 2843.99 354.17 2817.32 354.17 1971.31 871.38 1960.68 871.38 2843.99"/>
          <polygon class="cls-16" points="1427.91 2806.56 871.38 2843.99 871.38 1960.68 1427.91 1977.3 1427.91 2806.56"/>
        </g>
      </g>
    </g>
  </g>
</svg>