<?xml version="1.0" encoding="UTF-8"?>
<svg id="Capa_1" data-name="Capa 1" xmlns="http://www.w3.org/2000/svg" version="1.1" viewBox="0 0 66.6 20">
  <defs>
    <style>
      .cls-1 {
        fill: #004580;
        stroke-width: 0px;
      }
    </style>
  </defs>
  <path class="cls-1" d="M57.1,0h.2c.3.2.4.5.5.7,2,3.7,3.9,7.4,5.9,11.1,1,1.8,1.9,3.6,2.9,5.4h0c0,.1-.1.3-.2.3-1,0-1.9,0-2.9,0-.2,0-.3-.2-.4-.4-.2-.3-.4-.7-.5-1-.3-.5-.5-.9-.7-1.4-.2-.5-.5-.9-.7-1.3-.1-.3-.3-.5-.4-.8-.2-.4-.4-.8-.6-1.2-.3-.5-.5-1-.8-1.5-.2-.4-.5-.8-.6-1.3-.1-.3-.3-.6-.5-.9-.2-.4-.4-.7-.6-1.1,0-.1-.1-.4-.3-.4-.1,0-.3,0-.3,0-.3.5-.5,1-.8,1.5-.2.5-.5.9-.7,1.3-.1.3-.3.5-.4.8,0,.2-.2.4-.3.6-.2.3-.3.7-.5,1-.2.3-.3.6-.5.9-.2.3-.3.6-.5.9-.2.3-.3.7-.6,1.1-.2.3-.3.6-.5.9-.2.3-.3.6-.5.9-.2.3-.3.7-.5,1,0,0-.1.2-.2.2-.2,0-.4,0-.6,0-.7,0-1.5,0-2.2,0-.1,0-.3,0-.4-.1,0-.1,0-.3,0-.4,3-5.6,6-11.2,9-16.8,0,0,.1-.1.2-.2h0ZM0,2.7c.2-.2.5-.1.8-.2,2.7,0,5.3,0,8,0,.8,0,1.6,0,2.3.4,1.2.4,2.3,1.4,2.7,2.7.2.5.2,1,.3,1.5,0,.5,0,1.1-.3,1.6-.2.6-.6,1.2-1.1,1.6-.1.1-.3.2-.4.3.7.3,1.3.7,1.8,1.3.8,1,1,2.3.8,3.5,0,.8-.3,1.6-.7,2.3-.3.4-.6.8-1,1.1-.9.7-2,1-3.1,1.1-.2,0-.5,0-.7,0H.2c0,0-.1-.1-.2-.2V2.7M3,5.2c0,.1,0,.2,0,.4,0,1.3,0,2.6,0,3.9,0,0,.2.2.3.2,1.7,0,3.4,0,5.2,0,.2,0,.5,0,.7,0,.5,0,1.1-.3,1.4-.7.3-.3.4-.6.5-.9,0-.3.1-.6,0-.8,0-.5-.2-.9-.5-1.3-.4-.4-1-.6-1.6-.7-.2,0-.4,0-.6,0-.2,0-.5,0-.7,0-1.4,0-2.8,0-4.2,0-.1,0-.3,0-.4.1M3.1,12.2c0,0-.1,0-.1.1-.1.2,0,.4,0,.7,0,1.3,0,2.7,0,4,0,.2.1.5.3.4,1.8,0,3.6,0,5.5,0,.2,0,.4,0,.5,0,.6,0,1.3-.2,1.8-.6.4-.3.7-.8.8-1.3.1-.6,0-1.2,0-1.8-.2-.4-.5-.9-.9-1.1-.6-.3-1.2-.4-1.8-.5-1.9,0-3.8,0-5.8,0,0,0-.1,0-.2,0h0ZM17.8,2.5c.2,0,.4,0,.6,0,2.8,0,5.7,0,8.5,0,1.3,0,2.6.5,3.5,1.4.7.7,1.1,1.6,1.2,2.6,0,.4,0,.8,0,1.2-.1.8-.4,1.7-1.1,2.2-.2.2-.4.4-.6.5,0,0-.1,0-.1.1.7.3,1.4.8,1.8,1.4.2.3.3.6.5.9.3.6.3,1.3.4,1.9,0,.5,0,1-.2,1.5-.2.8-.6,1.6-1.2,2.2-.3.2-.5.4-.8.6-.8.5-1.7.7-2.6.8-.3,0-.5,0-.8,0h-9c-.1,0-.3-.2-.3-.4,0-5.6,0-11.1,0-16.7,0-.2,0-.3.2-.4M20.8,5.1c0,0-.2,0-.2.1,0,.1,0,.3,0,.4,0,1.2,0,2.4,0,3.6,0,.2,0,.3.2.4.4,0,.7,0,1.1,0,1.5,0,3,0,4.5,0,.5,0,1-.1,1.5-.4.5-.2.7-.6.9-1.1.1-.4,0-.8,0-1.1,0-.3-.1-.5-.2-.8-.4-.6-1-.9-1.7-1-.3,0-.5,0-.8,0-.2,0-.4,0-.6,0-1.4,0-2.9,0-4.3,0,0,0-.1,0-.2,0M20.7,12.2c-.1,0-.2.2-.2.3,0,1.4,0,2.8,0,4.2,0,.2,0,.4,0,.5,0,.1.2.1.3.1,1.9,0,3.7,0,5.6,0,.2,0,.5,0,.7,0,.6,0,1.3-.3,1.7-.7.4-.4.6-.9.6-1.4,0-.3,0-.5,0-.8,0-.6-.3-1.2-.7-1.6-.6-.5-1.4-.6-2.1-.6-1.9,0-3.7,0-5.6,0-.1,0-.3,0-.4,0h0ZM32.5,2.9c0-.2,0-.4.3-.4.9,0,1.8,0,2.7,0,.1,0,.2,0,.3.1.2.3.4.7.6,1,.1.2.3.4.4.7.2.4.5.8.7,1.3.3.5.5.9.7,1.4.2.5.5,1,.7,1.4.2.3.4.7.6,1.1.2.4.4.8.6,1.1.2.3.3.6.4.8.2.3.3.7.6,1.1.2.3.3.7.6,1.1,0,.2.4.2.5,0,.2-.3.4-.7.6-1.1.2-.3.3-.6.5-.9.2-.3.3-.7.6-1.1.2-.4.4-.7.6-1.1.2-.5.6-1,.8-1.5.2-.3.4-.7.6-1.1.2-.3.4-.7.6-1.1.2-.3.3-.7.5-1,.2-.3.3-.6.5-1,.3-.4.4-.9.7-1.3,0-.1.2,0,.3,0,.9,0,1.8,0,2.7,0,.1,0,.2,0,.3.2,0,.2,0,.3-.1.5-2.8,5.3-5.7,10.6-8.5,16-.2.3-.3.6-.6.9h-.2c-.3-.2-.4-.6-.6-.9-2.9-5.4-5.8-10.8-8.6-16.2h0Z"/>
</svg>