<?xml version="1.0" encoding="UTF-8"?>
<svg id="Capa_1" data-name="Capa 1" xmlns="http://www.w3.org/2000/svg" version="1.1" viewBox="0 0 50.8 20">
  <defs>
    <style>
      .cls-1 {
        fill: #f96a53;
      }

      .cls-1, .cls-2 {
        stroke-width: 0px;
      }

      .cls-2 {
        fill: #004192;
      }
    </style>
  </defs>
  <path class="cls-2" d="M12.4,9.4c1.9.6,3.1,1.8,3.2,3.7.2,2.2-.8,3.8-2.5,5-1,.7-2.1,1.1-3.3,1.3-2.3.4-4.5.4-6.8,0-2.3-.4-3.3-1.8-2.8-4C1.1,10.8,2.2,6.1,3.3,1.4c0-.4.2-.6.7-.7,2.6-.2,5.1-.6,7.7-.2.9.2,1.9.4,2.7.8,2.9,1.4,3.2,4.9.6,6.9-.7.5-1.6.9-2.6,1.2h0ZM5.7,11.2c-.3,1.5-.6,2.9-1,4.3-.1.5,0,.9.6,1,1.5,0,2.9,0,4.3-.8,1-.6,1.4-1.5,1.3-2.6-.1-1.1-.9-1.5-1.9-1.8-1.1-.3-2.1.2-3.3,0h0ZM8.9,3.5c-.5.3-1.3-.4-1.6.5-.3,1.1-.5,2.1-.8,3.2,0,.4,0,.7.4.7,1.6,0,3.2.1,4.4-1,1.2-1.1.9-2.8-.7-3.3-.6-.2-1.1-.2-1.8-.2h0ZM50.4,3.8c-.9-2.5-3.2-3-5.5-3.3-2.1-.2-4.3-.1-6.4.1-.7,0-1.1.4-1.3,1.1-1.3,5.8-2.6,11.5-3.9,17.3,0,.2-.2.4.1.7h1.7c2.1,0,2.8-.5,3.2-2.6.3-1.2.6-2.5.8-3.7.4-.2.8,0,1.1,0,3.1.1,6-.4,8.3-2.7,1.9-2,2.7-4.3,1.8-7h0ZM46.6,6.9c-.4,2-2.1,3.2-4.5,3.3-1.5,0-1.7-.2-1.3-1.7.3-1.3.6-2.5.8-3.8.1-.6.4-.9,1-.9.6,0,1.3,0,1.9,0,1.7.3,2.4,1.4,2.1,3.1h0ZM33.1.9c-4-1.5-7.9-1.2-11.3,1.7-3.2,2.8-4.2,6.5-3.8,10.6.2,2.4,1.2,4.3,3.3,5.6,2.7,1.5,5.6,1.6,8.5.7.6-.2,1.1-.6,1.3-1.3.3-1,.5-2.1.8-3.2-.9.5-1.6.9-2.5,1.2-2.6.8-5.3-.2-6.2-2.4-1.3-3.1.5-7.9,3.6-9.3,2.5-1.1,4.9-.6,7.3.7.1-.5.3-1,.4-1.5.4-1.5,0-2.2-1.4-2.8h0Z"/>
  <path class="cls-1" d="M-993.6-226.5c74.8,38,134.8,92.4,178.8,162.8,27,43.5,23.7,91.3-6.6,133.1-62.2,86.9-144.7,150.7-240.4,194.7-64.4,29.7-135.3-5-162.8-74.8,38.5-20.4,77-41.3,112.2-67.1,52.8-38.5,98.5-83.1,121-146.3,30.8-67.7,33.6-135.3-2.2-202.4h0ZM1069.1-226.5c74.8,37.4,134.8,93,179.3,162.8,27,42.4,24.8,89.1-4.4,130.4-62.7,89.1-146.9,154-244.8,198.6-63.8,28.6-133.1-6.6-160.1-74.8,36.3-19.8,73.2-39.6,106.7-64.4,54.5-39.6,102.9-84.7,126-150.2,31.4-68.2,33.6-135.9-2.8-202.4h0Z"/>
  <path class="cls-2" d="M-993.6-226.5c35.8,67.1,32.5,134.2,1.7,201.9-46.8-50.6-105.1-85.3-166.7-112.8,32.5-87.5,106.2-126,165-89.1h0ZM1069.1-226.5c36.3,67.1,34.1,134.2,2.2,202.4-46.2-50.6-104-84.7-168.9-113.9,21.5-48.4,52.3-83.6,100.7-101.8,24.8-9.9,46.2-2.8,66,13.2h0Z"/>
</svg>