<?xml version="1.0" encoding="UTF-8"?>
<!DOCTYPE svg PUBLIC "-//W3C//DTD SVG 1.1//EN" "http://www.w3.org/Graphics/SVG/1.1/DTD/svg11.dtd">
<!-- Creator: CorelDRAW -->
<svg xmlns="http://www.w3.org/2000/svg" xml:space="preserve" width="84.6666mm" height="38.6078mm" version="1.1" style="shape-rendering:geometricPrecision; text-rendering:geometricPrecision; image-rendering:optimizeQuality; fill-rule:evenodd; clip-rule:evenodd"
viewBox="0 0 8466.66 3860.78"
 xmlns:xlink="http://www.w3.org/1999/xlink"
 xmlns:xodm="http://www.corel.com/coreldraw/odm/2003">
 <defs>
  <style type="text/css">
   <![CDATA[
    .str0 {stroke:#373435;stroke-width:26.15;stroke-miterlimit:22.9256}
    .str1 {stroke:#373435;stroke-width:26.15;stroke-miterlimit:22.9256}
    .str2 {stroke:#373435;stroke-width:26.15;stroke-miterlimit:22.9256}
    .fil5 {fill:none}
    .fil4 {fill:#FEFEFE}
    .fil3 {fill:#00AFEF}
    .fil2 {fill:#2957A4}
    .fil0 {fill:black;fill-rule:nonzero}
    .fil1 {fill:#0064A6;fill-rule:nonzero}
   ]]>
  </style>
 </defs>
 <g id="Capa_x0020_1">
  <metadata id="CorelCorpID_0Corel-Layer"/>
  <g id="_1851933795488">
   <g>
    <path class="fil0" d="M157.07 2038.68c-28.65,0 -49.28,8.99 -61.89,26.96 -12.61,17.98 -18.87,47.59 -18.87,88.67 0,35.73 6.03,60.88 18.11,75.46 12.07,14.58 32.93,21.9 62.65,21.9l113.63 0 0 56.65 -116.99 0c-25.83,0 -46.08,-2.19 -60.9,-6.5 -14.75,-4.38 -28.58,-11.7 -41.57,-22.05 -16.88,-13.29 -29.49,-30.59 -37.98,-51.89 -8.39,-21.37 -12.6,-46.83 -12.6,-76.51 0,-57.56 12.6,-100 37.82,-127.34 25.21,-27.42 64.26,-41.09 117.21,-41.09l115.01 0 0 55.74 -113.63 0zm642.46 103.63c0,-55.9 13.53,-97.51 40.65,-124.78 27.05,-27.27 68.24,-40.94 123.63,-40.94 55.78,0 97.04,13.82 123.79,41.39 26.82,27.57 40.19,70.09 40.19,127.65 0,57.55 -13.37,100.15 -40.19,127.87 -26.75,27.72 -68.01,41.62 -123.79,41.62 -56.39,0 -97.88,-13.98 -124.47,-41.85 -26.51,-27.87 -39.81,-71.52 -39.81,-130.96zm164.28 -109.98c-29.72,0 -51.88,9.14 -66.62,27.42 -14.68,18.28 -22.02,46 -22.02,83.01 0,40.1 7.11,69.49 21.4,88.14 14.21,18.66 36.6,28.02 67.24,28.02 30.11,0 52.42,-9.29 67.01,-27.79 14.52,-18.51 21.77,-46.98 21.77,-85.5 0,-38.67 -7.25,-67.22 -21.77,-85.65 -14.59,-18.43 -36.9,-27.65 -67.01,-27.65zm864.43 8.61l-84.89 0 0 82.03 84.89 0c22.99,0 38.97,-3.1 47.91,-9.29 8.93,-6.19 13.45,-16.84 13.45,-31.95 0,-14.95 -4.36,-25.45 -13.07,-31.57 -8.79,-6.12 -24.83,-9.22 -48.29,-9.22zm-154.11 -58l170.46 0c39.74,0 68.85,7.93 87.33,23.71 18.58,15.79 27.82,40.56 27.82,74.17 0,25 -5.73,45.4 -17.11,61.18 -11.47,15.79 -27.89,25.99 -49.44,30.59l82.13 135.73 -77.85 0 -72.59 -127.8 -81.53 0 0 127.8 -69.22 0 0 -325.38zm842.95 0l150.29 0c25.37,0 45.61,1.28 60.66,3.85 15.14,2.57 27.14,6.72 36.07,12.31 14.9,9.44 26.21,21.83 33.93,37.09 7.72,15.25 11.53,32.85 11.53,52.79 0,19.49 -3.12,36.18 -9.4,50.15 -6.26,13.9 -15.81,25.46 -28.65,34.6 -10.77,7.55 -23.15,12.91 -37.05,16.08 -13.98,3.18 -35.38,4.76 -64.19,4.76l-83.97 0 0 113.75 -69.22 0 0 -325.38zm149.38 58l-80.16 0 0 96.08 84.43 0c20.94,0 36.44,-3.93 46.61,-11.86 10.16,-7.86 15.21,-19.94 15.21,-36.18 0,-17.45 -4.97,-29.76 -14.91,-37.08 -9.93,-7.33 -26.97,-10.96 -51.18,-10.96zm668.89 101.37c0,-55.9 13.53,-97.51 40.65,-124.78 27.05,-27.27 68.24,-40.94 123.63,-40.94 55.78,0 97.04,13.82 123.79,41.39 26.82,27.57 40.19,70.09 40.19,127.65 0,57.55 -13.37,100.15 -40.19,127.87 -26.75,27.72 -68.01,41.62 -123.79,41.62 -56.39,0 -97.88,-13.98 -124.47,-41.85 -26.51,-27.87 -39.81,-71.52 -39.81,-130.96zm164.28 -109.98c-29.72,0 -51.88,9.14 -66.62,27.42 -14.68,18.28 -22.02,46 -22.02,83.01 0,40.1 7.11,69.49 21.4,88.14 14.21,18.66 36.6,28.02 67.24,28.02 30.11,0 52.42,-9.29 67.01,-27.79 14.52,-18.51 21.77,-46.98 21.77,-85.5 0,-38.67 -7.25,-67.22 -21.77,-85.65 -14.59,-18.43 -36.9,-27.65 -67.01,-27.65zm864.43 8.61l-84.89 0 0 82.03 84.89 0c22.99,0 38.97,-3.1 47.91,-9.29 8.93,-6.19 13.45,-16.84 13.45,-31.95 0,-14.95 -4.36,-25.45 -13.07,-31.57 -8.79,-6.12 -24.83,-9.22 -48.29,-9.22zm-154.11 -58l170.46 0c39.74,0 68.85,7.93 87.33,23.71 18.58,15.79 27.82,40.56 27.82,74.17 0,25 -5.73,45.4 -17.11,61.18 -11.47,15.79 -27.9,25.99 -49.44,30.59l82.13 135.73 -77.85 0 -72.59 -127.8 -81.53 0 0 127.8 -69.22 0 0 -325.38zm971.31 64.65l-48.14 125.23 98.04 0 -49.9 -125.23zm-34.01 -64.65l73.36 0 140.36 325.38 -77.02 0 -30.18 -77.49 -143.04 0 -29.34 77.49 -73.43 0 139.29 -325.38zm871.61 55.74c-28.65,0 -49.28,8.99 -61.89,26.96 -12.61,17.98 -18.87,47.59 -18.87,88.67 0,35.73 6.03,60.88 18.11,75.46 12.07,14.58 32.93,21.9 62.65,21.9l113.63 0 0 56.65 -116.99 0c-25.82,0 -46.08,-2.19 -60.9,-6.5 -14.75,-4.38 -28.58,-11.7 -41.57,-22.05 -16.88,-13.29 -29.49,-30.59 -37.97,-51.89 -8.4,-21.37 -12.61,-46.83 -12.61,-76.51 0,-57.56 12.61,-100 37.83,-127.34 25.21,-27.42 64.26,-41.09 117.21,-41.09l115 0 0 55.74 -113.63 0zm736.45 269.64l-72.44 0 0 -325.38 72.44 0 0 325.38zm546.4 -166.01c0,-55.9 13.53,-97.51 40.65,-124.78 27.05,-27.27 68.24,-40.94 123.63,-40.94 55.79,0 97.04,13.82 123.79,41.39 26.82,27.57 40.19,70.09 40.19,127.65 0,57.55 -13.37,100.15 -40.19,127.87 -26.75,27.72 -68,41.62 -123.79,41.62 -56.38,0 -97.88,-13.98 -124.47,-41.85 -26.51,-27.87 -39.81,-71.52 -39.81,-130.96zm164.28 -109.98c-29.72,0 -51.88,9.14 -66.62,27.42 -14.68,18.28 -22.02,46 -22.02,83.01 0,40.1 7.12,69.49 21.4,88.14 14.21,18.66 36.6,28.02 67.24,28.02 30.11,0 52.42,-9.29 67.01,-27.79 14.52,-18.51 21.78,-46.98 21.78,-85.5 0,-38.67 -7.26,-67.22 -21.78,-85.65 -14.59,-18.43 -36.9,-27.65 -67.01,-27.65zm710.32 -49.39l87.64 0 134.86 233.76 -3.36 -233.76 70.6 0 0 325.38 -80.23 0 -141.59 -246.15 3.14 246.15 -71.06 0 0 -325.38z"/>
    <path class="fil1" d="M584.8 3276.06l0 -242.7 682.24 0 0 814.11 -620.45 0c-114.67,0 -202.58,-9.24 -263.73,-28.03 -61.15,-18.79 -118.49,-49.37 -172,-92.37 -70.39,-56.05 -122.94,-128.99 -158.3,-218.81 -35.03,-90.14 -52.55,-197.48 -52.55,-322.65 0,-242.07 52.55,-420.76 157.98,-536.69 105.43,-115.62 268.19,-173.59 488.6,-173.59l620.45 0 0 236.97 -620.45 0c-113.39,0 -195.89,36.63 -247.8,109.89 -51.92,73.57 -77.72,190.47 -77.72,350.68 0,149.7 25.8,258.31 77.4,325.51 51.6,67.21 134.09,100.65 248.12,100.65l324.24 0 0 -322.97 -386.03 0zm892.78 -435.72l446.87 0c104.79,0 178.05,18.79 220.09,56.38 42.05,37.58 63.07,103.51 63.07,197.47l0 168.5 -254.17 0 0 -129.96c0,-39.49 -7.01,-65.93 -21.02,-79.31 -14.02,-13.37 -45.87,-20.06 -95.88,-20.06l-93.32 0 0 814.11 -265.64 0 0 -1007.13zm1272.45 804.56l333.17 0 0 -208.31 -313.42 0c-62.43,0 -105.11,8.28 -128.99,25.16 -23.57,16.89 -35.36,46.19 -35.36,87.91 0,35.36 9.56,60.2 28.35,74.22 19.11,14.01 57.97,21.02 116.25,21.02zm-352.9 -804.56l544.33 0c137.28,0 240.79,31.53 310.55,94.6 69.75,63.38 104.47,157.02 104.47,281.56l0 630.97 -714.74 0c-100.01,0 -177.09,-25.16 -230.92,-75.49 -53.83,-50.64 -80.58,-121.99 -80.58,-214.99 0,-114.35 30.89,-196.52 92.68,-246.21 62.11,-50.01 164.67,-74.85 308.64,-74.85l349.72 0 0 -25.16c0,-59.56 -17.51,-101.61 -52.55,-125.81 -35.35,-24.21 -97.78,-36.31 -188.24,-36.31l-443.36 0 0 -208.31zm1283.9 200.66l-191.1 0 0 -200.66 191.1 0 0 -103.2c0,-102.87 19.12,-172.31 57.02,-207.98 37.9,-35.99 110.52,-53.83 218.18,-53.83l252.26 0 0 194.93 -126.13 0c-45.55,0 -77.72,7 -97.15,21.02 -19.43,13.69 -28.98,36.95 -28.98,69.12l0 79.94 252.26 0 0 200.66 -252.26 0 0 806.47 -275.2 0 0 -806.47zm936.74 -315.32l-279.02 0 0 -250.35 279.02 0 0 250.35zm0 1121.79l-279.02 0 0 -1007.13 279.02 0 0 1007.13zm229.64 -1007.13l1021.15 0c148.1,0 254.8,28.99 320.1,86.95 65.29,57.97 97.78,151.93 97.78,282.2l0 637.98 -267.55 0 0 -603.58c0,-73.89 -11.14,-122.94 -33.44,-146.51 -22.61,-23.57 -68.48,-35.36 -138.23,-35.36l-149.38 0 0 785.45 -271.38 0 0 -785.45 -311.5 0 0 785.45 -267.55 0 0 -1007.13zm2049.93 804.56l333.17 0 0 -208.31 -313.42 0c-62.43,0 -105.11,8.28 -128.99,25.16 -23.57,16.89 -35.36,46.19 -35.36,87.91 0,35.36 9.56,60.2 28.35,74.22 19.11,14.01 57.97,21.02 116.25,21.02zm-352.9 -804.56l544.33 0c137.28,0 240.79,31.53 310.56,94.6 69.75,63.38 104.47,157.02 104.47,281.56l0 630.97 -714.75 0c-100.01,0 -177.09,-25.16 -230.92,-75.49 -53.83,-50.64 -80.58,-121.99 -80.58,-214.99 0,-114.35 30.89,-196.52 92.68,-246.21 62.11,-50.01 164.67,-74.85 308.64,-74.85l349.72 0 0 -25.16c0,-59.56 -17.51,-101.61 -52.55,-125.81 -35.35,-24.21 -97.78,-36.31 -188.24,-36.31l-443.36 0 0 -208.31zm1192.18 0l446.87 0c104.79,0 178.05,18.79 220.09,56.38 42.05,37.58 63.07,103.51 63.07,197.47l0 168.5 -254.17 0 0 -129.96c0,-39.49 -7.01,-65.93 -21.02,-79.31 -14.02,-13.37 -45.87,-20.06 -95.88,-20.06l-93.32 0 0 814.11 -265.64 0 0 -1007.13z"/>
    <g id="_1851445749616">
     <path class="fil2" d="M3769.39 1223.58l421.22 0 0 176.91c0,255.72 -293.24,312.05 -506.88,312.05l-718.09 0c-127.87,0 -247.21,-13.91 -338.16,-50.36 -143.89,-57.67 -159.02,-151.19 -160.27,-265.16l0 -64 422.4 0 0 25.3c0,138.78 283.78,118.08 397.06,118.08 183.36,0 481.54,28.28 481.54,-160.25 0,-34.39 0.68,-65.11 1.18,-92.57z"/>
     <path class="fil3" d="M3769.39 1223.58l421.22 0 0 -143.57c0,-286.71 -287.43,-337.35 -532.23,-337.35l-718.08 0c-195.45,0 -456.19,32 -456.19,269.88l0 84.34 413.95 0c9.69,-116.22 132.09,-118.08 261.89,-118.08 115.3,0 373.97,-3.72 467.11,14.4 142.82,27.78 145.08,81.2 142.33,230.38z"/>
     <path class="fil2" d="M4283.09 1223.58l421.65 0c-2.95,119.95 -7.69,210.06 100.89,244.41 112.5,35.6 533.28,29.68 654.64,9.88 137.89,-22.49 138.02,-113.12 90.24,-113.12l-464.72 0c0,-117.32 -17.57,-195.33 25.35,-195.33l887.19 0 0 331.21c0,202.11 -319.66,229.3 -532.32,229.3l-692.85 0c-211.53,0 -490.07,-62.65 -490.07,-314.22l0 -192.13z"/>
     <path class="fil3" d="M4283.09 1223.58l421.65 0c0.43,-17.45 0.82,-35.53 0.82,-54.16 0,-168.19 134.47,-169.85 312.63,-169.85 115.8,0 363.18,-6.5 465.99,15.71 125.61,27.14 54.06,103.19 108.58,103.19l397.12 0c0,-132.58 -8.22,-243.09 -137.76,-303.16 -80.09,-37.14 -211.96,-53.53 -326.96,-53.53l-709.75 0c-125.04,0 -271.58,24.65 -362.38,60.4 -23.54,9.28 -40.69,21.97 -63.76,37.83 -61.62,42.38 -106.18,142.94 -106.18,224.49l0 139.08z"/>
    </g>
    <g>
     <path class="fil4 str0" d="M4381.33 36.28c97.1,-5.59 180.34,68.57 185.92,165.65 5.61,97.08 -68.57,180.32 -165.64,185.92 -97.1,5.59 -180.32,-68.58 -185.92,-165.65 -5.58,-97.09 68.57,-180.33 165.64,-185.92zm7.51 130.63c25.02,-1.43 46.43,17.69 47.88,42.68 1.44,24.99 -17.66,46.42 -42.66,47.87 -24.99,1.45 -46.43,-17.66 -47.88,-42.65 -1.43,-25 17.67,-46.43 42.66,-47.9z"/>
     <path class="fil4 str1" d="M4240.43 402.36c97.08,-5.6 180.32,68.57 185.89,165.65 5.61,97.08 -68.56,180.32 -165.64,185.92 -97.1,5.59 -180.31,-68.57 -185.92,-165.66 -5.59,-97.08 68.58,-180.32 165.67,-185.91zm7.48 130.65c25.01,-1.47 46.45,17.65 47.88,42.65 1.44,24.99 -17.65,46.44 -42.66,47.88 -25,1.43 -46.43,-17.66 -47.86,-42.67 -1.46,-25 17.65,-46.42 42.64,-47.86z"/>
     <path class="fil5 str2" d="M2150.59 308.92c530.75,-212.92 785.36,-255.19 1200.89,-247.64 300.95,8.67 573.41,154.03 859.21,290.35 248.05,118.32 506.13,229.81 801.57,239.25 403.52,36.97 832.77,-32.86 1302.59,-341.22 -242.25,-72.01 -489.45,-149.98 -731.7,-221.99 -139.32,110.6 -373.84,348.39 -1144.05,385.12 -100.59,4.87 -157.84,-32.87 -254.03,-59.6 -478.18,-132.88 -1105.65,27.66 -1302.3,191.41 -276.19,-92.71 -455.99,-142.97 -732.18,-235.68z"/>
    </g>
   </g>
  </g>
 </g>
</svg>
